<?xml version="1.0" standalone="no"?>
<!DOCTYPE svg PUBLIC "-//W3C//DTD SVG 1.1//EN" "http://www.w3.org/Graphics/SVG/1.1/DTD/svg11.dtd" >
<svg>
<metadata>
Created by FontForge 20090914 at Fri Sep 16 09:04:07 2011
 By www-data
Copyright (c) 2008 by Jovanny Lemonad &#38; Erico Lebedenco. All rights reserved.
</metadata>
<defs>
<font id="Philosopher" horiz-adv-x="250" >
  <font-face 
    font-family="Philosopher"
    font-weight="400"
    font-stretch="normal"
    units-per-em="1000"
    panose-1="2 0 5 3 7 0 0 2 0 4"
    ascent="800"
    descent="-200"
    x-height="470"
    cap-height="660"
    bbox="-30 -212 945 870"
    underline-thickness="50"
    underline-position="-150"
    stemh="40"
    stemv="90"
    unicode-range="U+0020-U+2122"
  />
<missing-glyph 
 />
    <glyph glyph-name=".notdef" 
 />
    <glyph glyph-name="degree" unicode="&#xb0;" horiz-adv-x="440" 
d="M220 645c-65 0 -110 -45 -110 -115s45 -115 110 -115s110 45 110 115s-45 115 -110 115zM220 680c90 0 150 -60 150 -150s-60 -150 -150 -150s-150 60 -150 150s60 150 150 150z" />
    <glyph glyph-name="bullet" unicode="&#x2022;" horiz-adv-x="340" 
d="M170 450c70 0 120 -50 120 -120s-50 -120 -120 -120s-120 50 -120 120s50 120 120 120z" />
    <glyph glyph-name="paragraph" unicode="&#xb6;" horiz-adv-x="530" 
d="M250 -190v480c-130 0 -230 70 -230 185s100 185 230 185h230v-40h-65v-810h-40v810h-85v-810h-40z" />
    <glyph glyph-name="trademark" unicode="&#x2122;" horiz-adv-x="845" 
d="M151 630h-38c-45 0 -78 -26 -78 -75h-15v45c0 30 11 60 56 60h273v-30h-131v-323h-67v323zM678 582l-123 -275h-15l-127 282v-282h-30v353h71l112 -248l112 248h67v-240c0 -57 23 -113 60 -113v-15c-97 0 -127 49 -127 128v162z" />
    <glyph glyph-name="plusminus" unicode="&#xb1;" horiz-adv-x="500" 
d="M480 70h-460v40h210v200h-210v40h210v210h40v-210h210v-40h-210v-200h210v-40z" />
    <glyph glyph-name="emdash" unicode="&#x2014;" horiz-adv-x="780" 
d="M760 270v-40h-740v40h740z" />
    <glyph glyph-name="quotedblleft" unicode="&#x201c;" horiz-adv-x="445" 
d="M360 680l10 -15c-50 -35 -80 -75 -80 -135l30 10c30 0 55 -25 55 -55c0 -35 -25 -60 -60 -60c-40 0 -65 25 -65 70c0 85 40 145 110 185zM180 680l10 -15c-50 -35 -80 -75 -80 -135l30 10c30 0 55 -25 55 -55c0 -35 -25 -60 -60 -60c-40 0 -65 25 -65 70
c0 85 40 145 110 185z" />
    <glyph glyph-name="quotedblright" unicode="&#x201d;" horiz-adv-x="445" 
d="M85 425l-10 15c50 35 80 75 80 135l-30 -10c-30 0 -55 25 -55 55c0 35 25 60 60 60c40 0 65 -25 65 -70c0 -85 -40 -145 -110 -185zM265 425l-10 15c50 35 80 75 80 135l-30 -10c-30 0 -55 25 -55 55c0 35 25 60 60 60c40 0 65 -25 65 -70c0 -85 -40 -145 -110 -185z" />
    <glyph glyph-name="guilsinglleft" unicode="&#x2039;" horiz-adv-x="265" 
d="M195 30l-175 195l175 195h40l-110 -195l110 -195h-40z" />
    <glyph glyph-name="quotedblbase" unicode="&#x201e;" horiz-adv-x="445" 
d="M85 -155l-10 15c50 35 80 75 80 135l-30 -10c-30 0 -55 25 -55 55c0 35 25 60 60 60c40 0 65 -25 65 -70c0 -85 -40 -145 -110 -185zM265 -155l-10 15c50 35 80 75 80 135l-30 -10c-30 0 -55 25 -55 55c0 35 25 60 60 60c40 0 65 -25 65 -70c0 -85 -40 -145 -110 -185z
" />
    <glyph glyph-name="endash" unicode="&#x2013;" horiz-adv-x="510" 
d="M490 270v-40h-470v40h470z" />
    <glyph glyph-name="Euro" unicode="&#x20ac;" horiz-adv-x="675" 
d="M360 295l-10 -40h-176c18 -126 90 -235 236 -235c100 0 170 50 225 140l20 -15c-65 -125 -155 -165 -275 -165c-168 0 -281 117 -305 275h-75l10 40h60v60h-55l10 40h52c30 163 155 285 303 285c110 0 194 -36 230 -80c25 -30 25 -90 25 -150h-20
c-25 130 -95 190 -205 190c-116 0 -215 -63 -236 -245h201l-10 -40h-195v-60h190z" />
    <glyph glyph-name="percent" unicode="%" horiz-adv-x="630" 
d="M110 0h-45l455 660h45zM110 0h-45l455 660h45zM600 120c0 -70 -50 -120 -135 -120s-135 50 -135 120s50 120 135 120s135 -50 135 -120zM395 120c0 -55 30 -90 70 -90s70 35 70 90s-30 90 -70 90s-70 -35 -70 -90zM300 540c0 -70 -50 -120 -135 -120s-135 50 -135 120
s50 120 135 120s135 -50 135 -120zM95 540c0 -55 30 -90 70 -90s70 35 70 90s-30 90 -70 90s-70 -35 -70 -90z" />
    <glyph glyph-name="perthousand" unicode="&#x2030;" horiz-adv-x="910" 
d="M110 0h-45l455 660h45zM880 120c0 -70 -50 -120 -135 -120s-135 50 -135 120s50 120 135 120s135 -50 135 -120zM675 120c0 -55 30 -90 70 -90s70 35 70 90s-30 90 -70 90s-70 -35 -70 -90zM580 120c0 -70 -50 -120 -135 -120s-135 50 -135 120s50 120 135 120
s135 -50 135 -120zM375 120c0 -55 30 -90 70 -90s70 35 70 90s-30 90 -70 90s-70 -35 -70 -90zM300 540c0 -70 -50 -120 -135 -120s-135 50 -135 120s50 120 135 120s135 -50 135 -120zM95 540c0 -55 30 -90 70 -90s70 35 70 90s-30 90 -70 90s-70 -35 -70 -90z" />
    <glyph glyph-name="ellipsis" unicode="&#x2026;" horiz-adv-x="628" 
d="M104 95c31 0 54 -25 54 -54c0 -31 -25 -55 -54 -55s-54 24 -54 55c0 29 25 54 54 54zM314 95c31 0 54 -25 54 -54c0 -31 -25 -55 -54 -55s-54 24 -54 55c0 29 25 54 54 54zM524 95c31 0 54 -25 54 -54c0 -31 -25 -55 -54 -55s-54 24 -54 55c0 29 25 54 54 54z" />
    <glyph glyph-name="guilsinglright" unicode="&#x203a;" horiz-adv-x="265" 
d="M245 225l-175 -195h-40l110 195l-110 195h40z" />
    <glyph glyph-name="guillemotright" unicode="&#xbb;" horiz-adv-x="330" 
d="M70 370l100 -145l-100 -145h-40l60 145l-60 145h40zM210 225l-95 195h40l155 -195l-155 -195h-40z" />
    <glyph glyph-name="quotesinglbase" unicode="&#x201a;" horiz-adv-x="265" 
d="M85 -155l-10 15c50 35 80 75 80 135l-30 -10c-30 0 -55 25 -55 55c0 35 25 60 60 60c40 0 65 -25 65 -70c0 -85 -40 -145 -110 -185z" />
    <glyph glyph-name="quoteleft" unicode="&#x2018;" horiz-adv-x="265" 
d="M180 680l10 -15c-50 -35 -80 -75 -80 -135l30 10c30 0 55 -25 55 -55c0 -35 -25 -60 -60 -60c-40 0 -65 25 -65 70c0 85 40 145 110 185z" />
    <glyph glyph-name="quoteright" unicode="&#x2019;" horiz-adv-x="265" 
d="M85 425l-10 15c50 35 80 75 80 135l-30 -10c-30 0 -55 25 -55 55c0 35 25 60 60 60c40 0 65 -25 65 -70c0 -85 -40 -145 -110 -185z" />
    <glyph glyph-name="afii10101" unicode="&#x454;" horiz-adv-x="455" 
d="M250 480c70 0 120 -10 145 -35s25 -55 25 -130h-20c-5 85 -60 125 -130 125c-95 0 -140 -85 -145 -190h210v-40h-210c5 -105 53 -180 145 -180c70 0 110 30 145 80l20 -15c-45 -75 -105 -105 -185 -105c-150 0 -220 110 -220 245s70 245 220 245z" />
    <glyph glyph-name="afii10053" unicode="&#x404;" horiz-adv-x="635" 
d="M595 450h-20c-25 130 -95 190 -205 190c-124 0 -230 -75 -240 -290h331v-40h-331c5 -145 74 -290 240 -290c100 0 170 50 225 140l20 -15c-65 -125 -155 -165 -275 -165c-190 0 -310 150 -310 340c0 200 140 360 310 360c110 0 194 -36 230 -80c25 -30 25 -90 25 -150z
" />
    <glyph glyph-name="afii10071" unicode="&#x451;" horiz-adv-x="475" 
d="M435 260l-2 -40h-298c0 -110 50 -190 135 -190c65 0 105 30 140 80l20 -15c-45 -75 -105 -105 -180 -105c-140 0 -210 110 -210 245s70 245 195 245c135 0 200 -80 200 -220zM135 260h210c0 110 -35 175 -105 175c-60 0 -105 -75 -105 -175zM365 580
c0 -25 -20 -45 -45 -45s-45 20 -45 45s20 45 45 45s45 -20 45 -45zM195 580c0 -25 -20 -45 -45 -45s-45 20 -45 45s20 45 45 45s45 -20 45 -45z" />
    <glyph glyph-name="afii10105" unicode="&#x458;" 
d="M80 25v325c0 60 -10 100 -70 100h-20v20h90c70 0 90 -20 90 -120v-325c0 -150 -40 -215 -185 -215v20c65 0 95 75 95 195zM164 575c0 -28 -18 -45 -46 -45c-31 0 -56 30 -56 64c0 28 18 45 46 45c31 0 56 -30 56 -64z" />
    <glyph glyph-name="afii10054" unicode="&#x405;" horiz-adv-x="526" 
d="M481 168c0 -112 -79 -185 -208 -185c-109 0 -228 47 -228 122v107h18c22 -134 89 -189 201 -189c69 0 131 36 131 102c0 58 -37 95 -110 138l-123 73c-85 50 -117 98 -117 172c0 103 77 170 194 170c99 0 216 -45 216 -120v-107h-18c-22 134 -86 187 -198 187
c-59 0 -116 -39 -116 -101c0 -58 38 -88 111 -131l123 -73c85 -50 124 -91 124 -165z" />
    <glyph glyph-name="afii10102" unicode="&#x455;" horiz-adv-x="435" 
d="M395 120c0 -85 -75 -130 -175 -130c-80 0 -130 15 -155 40s-25 55 -25 105h20c10 -65 55 -105 140 -105c75 0 110 30 110 70s-30 65 -90 90l-60 25c-75 31 -120 70 -120 135c0 85 70 130 165 130c75 0 125 -15 150 -40s25 -55 25 -105h-20c-10 65 -55 105 -135 105
c-65 0 -100 -30 -100 -70c0 -35 30 -64 80 -85l60 -25c85 -35 130 -70 130 -140z" />
    <glyph glyph-name="afii10057" unicode="&#x408;" horiz-adv-x="290" 
d="M5 -137v20c65 0 95 75 95 195v582h90v-582c0 -150 -40 -215 -185 -215z" />
    <glyph glyph-name="afii10104" unicode="&#x457;" 
d="M170 350v-350h-90v350c0 60 -10 100 -70 100h-20v20h90c70 0 90 -20 90 -120zM91 575c0 -28 -18 -45 -46 -45c-31 0 -56 30 -56 64c0 28 18 45 46 45c31 0 56 -30 56 -64zM245 575c0 -28 -18 -45 -46 -45c-31 0 -56 30 -56 64c0 28 18 45 46 45c31 0 56 -30 56 -64z" />
    <glyph glyph-name="afii10103" unicode="&#x456;" 
d="M170 350v-350h-90v350c0 60 -10 100 -70 100h-20v20h90c70 0 90 -20 90 -120zM164 575c0 -28 -18 -45 -46 -45c-31 0 -56 30 -56 64c0 28 18 45 46 45c31 0 56 -30 56 -64z" />
    <glyph glyph-name="afii10056" unicode="&#x407;" horiz-adv-x="290" 
d="M100 120v540h90v-540c0 -60 10 -100 70 -100h20v-20h-90c-70 0 -90 20 -90 120zM272 765c0 -30 -20 -50 -50 -50s-50 20 -50 50s20 50 50 50s50 -20 50 -50zM118 765c0 -30 -20 -50 -50 -50s-50 20 -50 50s20 50 50 50s50 -20 50 -50z" />
    <glyph glyph-name="afii10050" unicode="&#x490;" horiz-adv-x="510" 
d="M465 620h-275v-620h-90v540c0 60 -10 100 -70 100h-20v20h355c80 0 125 35 125 115h20v-110c0 -25 -20 -45 -45 -45z" />
    <glyph glyph-name="afii10098" unicode="&#x491;" horiz-adv-x="405" 
d="M355 430h-195v-430h-90v350c0 60 -10 100 -70 100h-10v20h280c60 0 105 35 105 100h20v-100c0 -25 -15 -40 -40 -40z" />
    <glyph glyph-name="afii10106" unicode="&#x459;" horiz-adv-x="740" 
d="M350 0v430h-150v-120c0 -240 -40 -320 -135 -320c-15 0 -40 5 -55 10v25c75 5 105 85 105 325c0 60 -10 100 -71 100v20h396v-190h75c115 0 205 -30 205 -140s-90 -140 -205 -140h-165zM440 235v-190c15 -5 45 -10 65 -10c75 0 120 30 120 105s-45 105 -120 105
c-20 0 -50 -5 -65 -10z" />
    <glyph glyph-name="afii10058" unicode="&#x409;" horiz-adv-x="955" 
d="M65 660h485v-280h110c115 0 265 -30 265 -190s-150 -190 -265 -190h-200v620h-230v-120c0 -410 -60 -510 -170 -510c-20 0 -45 5 -60 10v25c95 5 145 105 145 515c0 60 -10 100 -70 100h-10v20zM825 190c0 105 -70 155 -180 155c-30 0 -65 -5 -95 -15v-280
c30 -10 65 -15 95 -15c110 0 180 50 180 155z" />
    <glyph glyph-name="afii10107" unicode="&#x45a;" horiz-adv-x="750" 
d="M450 470v-210h75c115 0 205 -30 205 -130s-90 -130 -205 -130h-165v220h-190v-220h-90v350c0 60 -10 100 -70 100h-15v20h85c70 0 90 -20 90 -120v-90h190v210h90zM450 215v-170c15 -5 45 -10 65 -10c75 0 120 30 120 95s-45 95 -120 95c-20 0 -50 -5 -65 -10z" />
    <glyph glyph-name="afii10059" unicode="&#x40a;" horiz-adv-x="975" 
d="M570 660v-300h110c115 0 265 -30 265 -180s-150 -180 -265 -180h-200v320h-290v-320h-90v540c0 60 -10 100 -70 100h-20v20h90c70 0 90 -20 90 -120v-180h290v300h90zM845 180c0 95 -70 145 -180 145c-30 0 -65 -5 -95 -15v-260c30 -10 65 -15 95 -15
c110 0 180 50 180 145z" />
    <glyph glyph-name="afii10061" unicode="&#x40c;" horiz-adv-x="650" 
d="M10 660h90c70 0 90 -20 90 -120v-195l210 210c50 50 90 105 170 105h50v-25c-55 0 -90 -15 -145 -70l-195 -195l230 -240c54 -57 120 -105 170 -111v-19c-15 -5 -34 -10 -65 -10c-55 0 -120 20 -215 120l-210 220v-330h-90v540c0 60 -10 100 -70 100h-20v20zM425 790
l-105 -115h-50l70 115h85z" />
    <glyph glyph-name="afii10109" unicode="&#x45c;" horiz-adv-x="470" 
d="M170 350v-120l125 175c29 40 65 65 130 65h25v-25c-30 0 -65 -10 -90 -45l-110 -155l115 -145c35 -45 70 -75 115 -81v-19c-10 -5 -30 -10 -50 -10c-50 0 -100 24 -145 80l-115 145v-215h-90v350c0 60 -10 100 -70 100h-20v20h90c70 0 90 -20 90 -120zM355 600l-105 -115
h-50l70 115h85z" />
    <glyph glyph-name="afii10100" unicode="&#x453;" horiz-adv-x="405" 
d="M70 0v350c0 60 -10 100 -70 100h-10v20h330c60 0 75 -40 75 -80v-60h-20c0 65 -45 100 -105 100h-110v-430h-90zM325 625l-105 -115h-50l70 115h85z" />
    <glyph glyph-name="afii10052" unicode="&#x403;" horiz-adv-x="510" 
d="M100 0v540c0 60 -10 100 -70 100h-20v20h415c70 0 85 -40 85 -80v-75h-20c0 80 -45 115 -125 115h-175v-620h-90zM385 815l-105 -115h-50l70 115h85z" />
    <glyph glyph-name="afii10062" unicode="&#x40e;" horiz-adv-x="605" 
d="M280 95l10 25l-185 410c-25 55 -45 105 -135 110v20h120c65 0 95 -55 120 -110l135 -300l180 410h60l-246 -565c-28 -65 -79 -105 -159 -105h-50v30c60 0 126 15 150 75zM345 760c55 0 90 20 110 45l20 -15c-25 -55 -65 -90 -130 -90s-105 35 -130 90l20 15
c20 -25 55 -45 110 -45z" />
    <glyph glyph-name="afii10110" unicode="&#x45e;" horiz-adv-x="485" 
d="M215 -65l20 55l-155 390c-20 50 -60 75 -110 80v20h85c60 0 100 -30 120 -80l110 -275l130 345h50l-200 -535c-41 -110 -85 -135 -155 -135h-30v30c60 0 104 20 135 105zM280 565c55 0 85 15 110 40l20 -15c-25 -45 -65 -80 -130 -80s-105 35 -130 80l20 15
c25 -25 55 -40 110 -40z" />
    <glyph glyph-name="afii10145" unicode="&#x40f;" horiz-adv-x="680" 
d="M365 -175h-50l-15 175h-200v540c0 60 -10 100 -70 100h-20v20h90c70 0 90 -20 90 -120v-500h300v620h90v-660h-200z" />
    <glyph glyph-name="afii10193" unicode="&#x45f;" horiz-adv-x="540" 
d="M235 0h-155v350c0 60 -10 100 -70 100h-15v20h85c70 0 90 -20 90 -120v-310h200v430h90v-470h-155l-15 -150h-40z" />
    <glyph glyph-name="afii10108" unicode="&#x45b;" horiz-adv-x="550" 
d="M290 500h-120v-120c25 25 70 50 130 50c85 0 170 -35 170 -180v-250h-90v250c0 100 -55 135 -110 135c-40 0 -75 -25 -100 -53v-332h-90v500h-70v40h70v60l50 60h40v-120h120v-40z" />
    <glyph glyph-name="afii10099" unicode="&#x452;" horiz-adv-x="550" 
d="M80 500h-70v40h70v60l50 60h40v-120h120v-40h-120v-120c25 25 70 50 130 50c85 0 170 -35 170 -180v-175c0 -150 -40 -215 -185 -215v20c65 0 95 75 95 195v175c0 100 -55 135 -110 135c-40 0 -75 -25 -100 -53v-332h-90v500z" />
    <glyph glyph-name="afii10060" unicode="&#x40b;" horiz-adv-x="620" 
d="M190 345v-345h-90v620h-80v40h300v-40h-130v-230c30 20 80 40 150 40c105 0 190 -35 190 -180v-250h-90v250c0 100 -55 135 -130 135c-50 0 -90 -20 -120 -40z" />
    <glyph glyph-name="afii10051" unicode="&#x402;" horiz-adv-x="620" 
d="M440 200c0 150 -55 185 -130 185c-50 0 -90 -20 -120 -40v-345h-90v620h-80v40h300v-40h-130v-230c30 20 80 40 150 40c105 0 190 -35 190 -230c0 -175 -40 -240 -185 -240v20c65 0 95 75 95 220z" />
    <glyph glyph-name="afii10017" unicode="&#x410;" horiz-adv-x="620" 
d="M660 20v-20c-10 -3 -25 -5 -40 -5c-45 0 -126 15 -170 130l-25 65h-280l-80 -190h-45l280 660h30l220 -535c31 -75 55 -100 110 -105zM285 520l-125 -290h245z" />
    <glyph glyph-name="space" unicode=" " 
 />
    <glyph glyph-name="exclam" unicode="!" horiz-adv-x="268" 
d="M181 660l-18 -505h-58l-18 505h94zM134 94c29 0 54 -24 54 -53c0 -31 -25 -55 -54 -55s-54 24 -54 55c0 29 25 53 54 53z" />
    <glyph glyph-name="quotedbl" unicode="&#x22;" horiz-adv-x="380" 
d="M290 390h-40l-30 270h100zM130 390h-40l-30 270h100z" />
    <glyph glyph-name="numbersign" unicode="#" horiz-adv-x="700" 
d="M195 -15h-40l40 195h-135v40h144l41 200h-125v40h133l42 200h40l-42 -200h170l42 200h40l-42 -200h137v-40h-145l-42 -200h127v-40h-135l-40 -195h-40l40 195h-170zM285 420l-42 -200h171l41 200h-170z" />
    <glyph glyph-name="dollar" unicode="$" horiz-adv-x="526" 
d="M272 -80h-40v65c-96 10 -187 54 -187 120v107h18c20 -121 76 -178 169 -188v270l-70 42c-85 50 -117 98 -117 172c0 101 74 167 187 170v57h40v-59c90 -8 183 -51 183 -118v-107h-18c-20 120 -74 175 -165 185v-253l85 -50c85 -50 124 -91 124 -165
c0 -112 -79 -185 -209 -185v-63zM285 263l-13 7v-247c65 2 123 38 123 102c0 58 -37 95 -110 138zM123 537c0 -58 37 -88 109 -130v231c-57 -3 -109 -42 -109 -101z" />
    <glyph glyph-name="ampersand" unicode="&#x26;" horiz-adv-x="565" 
d="M250 -20c-150 0 -220 85 -220 185c0 75 45 140 110 168c-35 52 -55 102 -55 157c0 160 105 190 185 190s154 -36 190 -80c25 -30 25 -80 25 -130h-20c-20 110 -95 170 -165 170c-60 0 -115 -50 -115 -150c0 -130 100 -210 240 -345c25 55 40 115 45 175h30v-30
c0 -65 -10 -120 -41 -183l76 -72l-35 -34l-70 59c-40 -45 -96 -80 -180 -80zM395 90c-90 75 -160 140 -215 196c-35 -26 -55 -71 -55 -121c0 -80 45 -145 145 -145c50 0 95 30 125 70z" />
    <glyph glyph-name="quotesingle" unicode="'" horiz-adv-x="220" 
d="M130 390h-40l-30 270h100z" />
    <glyph glyph-name="parenleft" unicode="(" horiz-adv-x="280" 
d="M20 240c0 200 90 330 250 450l10 -15c-130 -115 -170 -275 -170 -435s40 -320 170 -435l-10 -15c-160 120 -250 250 -250 450z" />
    <glyph glyph-name="parenright" unicode=")" horiz-adv-x="280" 
d="M260 240c0 -200 -90 -330 -250 -450l-10 15c130 115 170 275 170 435s-40 320 -170 435l10 15c160 -120 250 -250 250 -450z" />
    <glyph glyph-name="asterisk" unicode="*" horiz-adv-x="450" 
d="M215 510l-30 150h80l-30 -150l115 105l40 -70l-145 -50l145 -50l-40 -70l-115 105l30 -150h-80l30 150l-115 -105l-40 70l145 50l-145 50l40 70z" />
    <glyph glyph-name="plus" unicode="+" horiz-adv-x="500" 
d="M230 100v210h-210v40h210v210h40v-210h210v-40h-210v-210h-40z" />
    <glyph glyph-name="comma" unicode="," horiz-adv-x="225" 
d="M65 -155l-10 15c50 35 80 75 80 135l-30 -10c-30 0 -55 25 -55 55c0 35 25 60 60 60c40 0 65 -25 65 -70c0 -85 -40 -145 -110 -185z" />
    <glyph glyph-name="hyphen" unicode="-" horiz-adv-x="335" 
d="M40 230v70h255v-70h-255z" />
    <glyph glyph-name="period" unicode="." horiz-adv-x="208" 
d="M104 95c31 0 54 -25 54 -54c0 -31 -25 -55 -54 -55s-54 24 -54 55c0 29 25 54 54 54z" />
    <glyph glyph-name="slash" unicode="/" horiz-adv-x="395" 
d="M45 -40l-35 15l340 740l35 -15z" />
    <glyph glyph-name="zero" unicode="0" horiz-adv-x="560" 
d="M280 640c-110 0 -140 -100 -140 -310s30 -310 140 -310s140 100 140 310s-30 310 -140 310zM280 680c175 0 240 -140 240 -350s-65 -350 -240 -350s-240 140 -240 350s65 350 240 350z" />
    <glyph glyph-name="one" unicode="1" horiz-adv-x="290" 
d="M200 660v-660h-90v560l-100 -60l-15 20l155 140h50z" />
    <glyph glyph-name="two" unicode="2" horiz-adv-x="510" 
d="M100 40h225c80 0 125 35 125 105h20v-65c0 -40 -15 -80 -85 -80h-355v50c210 205 325 290 325 440c0 100 -60 150 -130 150c-80 0 -145 -60 -165 -170h-20c0 50 0 100 24 130c36 44 111 80 191 80s200 -30 200 -190c0 -170 -170 -275 -355 -450z" />
    <glyph glyph-name="three" unicode="3" horiz-adv-x="500" 
d="M428 620l-258 -250c35 10 78 10 90 10c59 0 210 -30 210 -195c0 -175 -150 -205 -235 -205c-100 0 -160 40 -215 105l15 20c50 -55 110 -85 185 -85c80 0 150 50 150 165c0 105 -70 155 -130 155s-75 -5 -120 -15l-25 35l260 260h-175c-80 0 -125 -35 -125 -105h-20v65
c0 40 15 80 85 80h308v-40z" />
    <glyph glyph-name="four" unicode="4" horiz-adv-x="520" 
d="M420 660v-450h90v-40h-90v-170h-90v170h-320v40l330 450h80zM70 210h260v354z" />
    <glyph glyph-name="five" unicode="5" horiz-adv-x="500" 
d="M220 340l-140 -5l-35 39l10 286h375v-40h-295l-10 -240h115c90 0 230 -30 230 -195c0 -175 -150 -205 -235 -205c-100 0 -160 40 -215 105l15 20c50 -55 110 -85 185 -85c80 0 150 50 150 165c0 105 -60 155 -150 155z" />
    <glyph glyph-name="six" unicode="6" horiz-adv-x="520" 
d="M130 340c0 -230 35 -320 125 -320c95 0 130 90 130 185c0 115 -30 185 -125 185c-60 0 -95 -20 -130 -50zM40 330c0 240 60 350 245 350c65 0 105 -15 145 -30l-5 -20c-30 5 -70 10 -120 10c-140 0 -175 -100 -175 -255c35 25 80 45 160 45c140 0 190 -90 190 -225
c0 -115 -60 -225 -225 -225c-155 0 -215 110 -215 350z" />
    <glyph glyph-name="seven" unicode="7" horiz-adv-x="455" 
d="M445 620l-250 -620h-90l250 620h-200c-80 0 -125 -35 -125 -105h-20v65c0 40 15 80 85 80h350v-40z" />
    <glyph glyph-name="eight" unicode="8" horiz-adv-x="540" 
d="M475 520c0 -80 -61 -134 -125 -165c75 -44 150 -93 150 -195c0 -130 -105 -180 -230 -180s-230 50 -230 170c0 100 80 150 160 185c-70 40 -135 87 -135 175c0 130 95 170 205 170s205 -40 205 -160zM405 140c0 85 -74 131 -160 175c-59 -29 -110 -70 -110 -165
c0 -90 65 -130 135 -130s135 40 135 120zM160 530c0 -65 70 -115 145 -150c40 30 75 65 75 140c0 95 -60 120 -110 120s-110 -25 -110 -110z" />
    <glyph glyph-name="nine" unicode="9" horiz-adv-x="520" 
d="M390 320c0 230 -35 320 -125 320c-95 0 -130 -90 -130 -185c0 -115 30 -185 125 -185c60 0 95 20 130 50zM480 330c0 -240 -60 -350 -245 -350c-65 0 -105 15 -145 30l5 20c30 -5 70 -10 120 -10c140 0 175 100 175 255c-35 -25 -80 -45 -160 -45
c-140 0 -190 90 -190 225c0 115 60 225 225 225c155 0 215 -110 215 -350z" />
    <glyph glyph-name="colon" unicode=":" horiz-adv-x="209" 
d="M105 461c31 0 54 -25 54 -54c0 -31 -23 -54 -54 -54c-29 0 -54 23 -54 54c0 29 25 54 54 54zM104 95c31 0 55 -25 55 -54c0 -31 -24 -55 -55 -55c-29 0 -54 24 -54 55c0 29 25 54 54 54z" />
    <glyph glyph-name="semicolon" unicode=";" horiz-adv-x="225" 
d="M115 461c29 0 54 -24 54 -53c0 -31 -25 -54 -54 -54c-31 0 -55 23 -55 54c0 29 24 53 55 53zM65 -154l-11 14c51 40 81 75 81 140c-5 -5 -15 -15 -35 -15c-30 0 -50 25 -50 55c0 29 25 60 65 60c35 0 60 -30 60 -80c0 -70 -30 -120 -110 -174z" />
    <glyph glyph-name="less" unicode="&#x3c;" horiz-adv-x="580" 
d="M540 535l-460 -200l460 -200v-40l-520 225v30l520 225v-40z" />
    <glyph glyph-name="equal" unicode="=" horiz-adv-x="605" 
d="M40 390v40h525v-40h-525zM40 230v40h525v-40h-525z" />
    <glyph glyph-name="greater" unicode="&#x3e;" horiz-adv-x="580" 
d="M500 335l-460 200v40l520 -225v-30l-520 -225v40z" />
    <glyph glyph-name="question" unicode="?" horiz-adv-x="466" 
d="M206 96c31 0 55 -24 55 -55c0 -29 -26 -54 -55 -54c-31 0 -54 25 -54 54c0 31 23 55 54 55zM226 156h-40c5 164 150 184 150 334c0 100 -60 150 -130 150c-80 0 -146 -60 -166 -170h-20c0 50 0 100 25 130c36 44 111 80 191 80s200 -30 200 -190
c0 -170 -205 -200 -210 -334z" />
    <glyph glyph-name="at" unicode="@" horiz-adv-x="860" 
d="M515 110v135h-30c-100 0 -160 -40 -160 -100c0 -65 45 -95 95 -95s75 30 95 60zM430 -180c-230 0 -390 150 -390 430s160 430 390 430s390 -150 390 -410c0 -160 -60 -265 -195 -265c-55 0 -90 20 -105 55h-5c-20 -25 -65 -55 -140 -55c-55 0 -145 30 -145 140
s120 140 255 140h30c0 140 -45 170 -105 170c-55 0 -95 -20 -110 -85h-45c0 35 0 65 25 90s90 35 150 35c90 0 175 -30 175 -210v-180c0 -30 15 -60 50 -60c65 0 125 85 125 225c0 240 -140 370 -350 370s-350 -130 -350 -390s140 -390 350 -390c130 0 230 30 310 85l20 -30
c-80 -55 -185 -95 -330 -95z" />
    <glyph glyph-name="A" unicode="A" horiz-adv-x="620" 
d="M660 20v-20c-10 -3 -25 -5 -40 -5c-45 0 -126 15 -170 130l-25 65h-280l-80 -190h-45l280 660h30l220 -535c31 -75 55 -100 110 -105zM285 520l-125 -290h245z" />
    <glyph glyph-name="B" unicode="B" horiz-adv-x="605" 
d="M285 315h-95v-266c30 -9 65 -14 95 -14c120 0 190 50 190 140s-65 140 -190 140zM190 355h95c80 0 160 45 160 135c0 95 -100 135 -180 135c-25 0 -55 -5 -75 -10v-260zM10 660h260c105 0 270 -20 270 -175c0 -60 -40 -115 -130 -145c130 -20 165 -80 165 -160
c0 -150 -150 -180 -275 -180h-200v540c0 60 -10 100 -70 100h-20v20z" />
    <glyph glyph-name="C" unicode="C" horiz-adv-x="635" 
d="M595 450h-20c-25 130 -95 190 -205 190c-130 0 -240 -80 -240 -320c0 -150 70 -300 240 -300c100 0 170 50 225 140l20 -15c-65 -125 -155 -165 -275 -165c-190 0 -310 150 -310 340c0 200 140 360 310 360c110 0 194 -36 230 -80c25 -30 25 -90 25 -150z" />
    <glyph glyph-name="D" unicode="D" horiz-adv-x="695" 
d="M193 609v-561c41 -9 75 -13 102 -13c148 0 261 114 261 295c0 177 -110 295 -263 295c-29 0 -64 -5 -100 -16zM10 660h262c264 0 393 -126 393 -326c0 -195 -125 -334 -367 -334h-198v540c0 60 -10 100 -70 100h-20v20z" />
    <glyph glyph-name="E" unicode="E" horiz-adv-x="585" 
d="M10 660h426c70 0 85 -40 85 -80v-75h-20c0 80 -45 115 -125 115h-186v-260h270v-40h-270v-280h175c90 0 140 30 170 110l20 -5l-35 -95c-11 -30 -35 -50 -75 -50h-345v540c0 60 -10 100 -70 100h-20v20z" />
    <glyph glyph-name="F" unicode="F" horiz-adv-x="524" 
d="M10 660h399c70 0 85 -40 85 -80v-75h-20c0 80 -45 115 -125 115h-159v-265h226v-40h-226v-315h-90v540c0 60 -10 100 -70 100h-20v20z" />
    <glyph glyph-name="G" unicode="G" horiz-adv-x="685" 
d="M370 640c-170 0 -240 -150 -240 -300c0 -240 110 -320 240 -320c71 0 116 14 155 35v174c0 55 15 117 165 117v-20c-65 0 -75 -36 -75 -95v-188c-72 -44 -148 -63 -245 -63c-200 0 -340 160 -340 360c0 190 120 340 310 340c120 0 204 -36 240 -80c25 -30 25 -90 25 -135
h-20c-25 115 -95 175 -215 175z" />
    <glyph glyph-name="H" unicode="H" horiz-adv-x="680" 
d="M580 660v-540c0 -60 10 -100 70 -100h20v-20h-90c-70 0 -90 20 -90 120v200h-300v-320h-90v540c0 60 -10 100 -70 100h-20v20h90c70 0 90 -20 90 -120v-180h300v300h90z" />
    <glyph glyph-name="I" unicode="I" horiz-adv-x="290" 
d="M100 120v540h90v-540c0 -60 10 -100 70 -100h20v-20h-90c-70 0 -90 20 -90 120z" />
    <glyph glyph-name="J" unicode="J" horiz-adv-x="260" 
d="M5 -137v20c65 0 95 75 95 195v582h90v-582c0 -150 -40 -215 -185 -215z" />
    <glyph glyph-name="K" unicode="K" horiz-adv-x="650" 
d="M10 660h90c70 0 90 -20 90 -120v-195l210 210c50 50 90 105 170 105h50v-25c-55 0 -90 -15 -145 -70l-195 -195l230 -240c54 -57 120 -105 170 -111v-19c-15 -5 -34 -10 -65 -10c-55 0 -120 20 -215 120l-210 220v-330h-90v540c0 60 -10 100 -70 100h-20v20z" />
    <glyph glyph-name="L" unicode="L" horiz-adv-x="535" 
d="M190 540v-500h355v-40h-445v540c0 60 -10 100 -70 100h-20v20h90c70 0 90 -20 90 -120z" />
    <glyph glyph-name="M" unicode="M" horiz-adv-x="860" 
d="M855 -25v-20c-145 0 -185 65 -185 215v385l-250 -555h-20l-260 565v-565h-40v660h95l240 -520l235 520h90v-490c0 -120 30 -195 95 -195z" />
    <glyph glyph-name="N" unicode="N" horiz-adv-x="660" 
d="M100 0v540c0 60 -20 100 -90 100h-10v20h65c65 0 105 -23 135 -60l350 -435v495h40v-670h-20l-430 535v-525h-40z" />
    <glyph glyph-name="O" unicode="O" horiz-adv-x="680" 
d="M550 330c0 190 -80 310 -210 310s-210 -120 -210 -310s80 -310 210 -310s210 120 210 310zM30 330c0 196 120 350 310 350s310 -154 310 -350s-120 -350 -310 -350s-310 154 -310 350z" />
    <glyph glyph-name="P" unicode="P" horiz-adv-x="550" 
d="M265 305c55 0 155 40 155 160s-100 160 -155 160c-25 0 -55 -5 -75 -10v-300c20 -5 50 -10 75 -10zM190 270v-270h-90v540c0 60 -10 100 -70 100h-20v20h260c85 0 250 -20 250 -200c0 -170 -165 -190 -220 -190h-110z" />
    <glyph glyph-name="Q" unicode="Q" horiz-adv-x="680" 
d="M30 330c0 196 120 350 310 350s310 -154 310 -350c0 -166 -86 -302 -228 -339c31 -101 153 -176 238 -176v-20c-145 0 -287 45 -410 198c-137 40 -220 174 -220 337zM550 330c0 190 -80 310 -210 310s-210 -120 -210 -310s80 -310 210 -310s210 120 210 310z" />
    <glyph glyph-name="R" unicode="R" horiz-adv-x="580" 
d="M265 340c55 0 155 40 155 140c0 105 -100 145 -155 145c-25 0 -55 -5 -75 -10v-265c20 -5 50 -10 75 -10zM360 135l-100 170h-70v-305h-90v540c0 60 -10 100 -70 100h-20v20h260c85 0 250 -20 250 -180c0 -115 -90 -155 -160 -170l105 -175c51 -85 85 -110 135 -115v-20
c-10 -5 -35 -10 -60 -10c-70 0 -115 35 -180 145z" />
    <glyph glyph-name="S" unicode="S" horiz-adv-x="526" 
d="M481 168c0 -112 -79 -185 -208 -185c-109 0 -228 47 -228 122v107h18c22 -134 89 -189 201 -189c69 0 131 36 131 102c0 58 -37 95 -110 138l-123 73c-85 50 -117 98 -117 172c0 103 77 170 194 170c99 0 216 -45 216 -120v-107h-18c-22 134 -86 187 -198 187
c-59 0 -116 -39 -116 -101c0 -58 38 -88 111 -131l123 -73c85 -50 124 -91 124 -165z" />
    <glyph glyph-name="T" unicode="T" horiz-adv-x="550" 
d="M85 660h465v-40h-225v-620h-90v620h-90c-80 0 -125 -35 -125 -115h-20v75c0 40 15 80 85 80z" />
    <glyph glyph-name="U" unicode="U" horiz-adv-x="680" 
d="M100 285v255c0 60 -10 100 -70 100h-20v20h90c70 0 90 -20 90 -120v-285c0 -140 45 -225 177 -225c153 0 203 80 203 255v375h40v-375c0 -195 -50 -295 -255 -295c-195 0 -255 100 -255 295z" />
    <glyph glyph-name="V" unicode="V" horiz-adv-x="657" 
d="M188 543l171 -403l220 520h48l-287 -670h-18l-232 553c-31 75 -55 100 -110 105v20c5 0 25 2 34 2c49 0 127 -13 174 -127z" />
    <glyph glyph-name="W" unicode="W" horiz-adv-x="875" 
d="M284 -10l-194 553c-27 76 -50 100 -110 105v20c5 0 25 2 34 2c56 0 130 -11 171 -127l134 -386l107 317l-24 69c-27 76 -50 100 -110 105v20c5 0 25 2 34 2c56 0 130 -11 171 -127l134 -386l171 503h43l-229 -670h-20l-148 421l-144 -421h-20z" />
    <glyph glyph-name="X" unicode="X" horiz-adv-x="640" 
d="M305 290l-225 -290h-50l250 325l-140 205c-34 50 -70 105 -160 110v20h120c65 0 106 -60 140 -110l100 -150l200 260h50l-225 -295l160 -235c34 -50 80 -105 145 -110v-20h-105c-65 0 -107 60 -140 110z" />
    <glyph glyph-name="Y" unicode="Y" horiz-adv-x="629" 
d="M210 550l145 -225l209 335h45l-234 -380v-280h-90v273l-170 257c-40 60 -75 105 -145 110v20h90c75 0 115 -55 150 -110z" />
    <glyph glyph-name="Z" unicode="Z" horiz-adv-x="610" 
d="M145 660h435l-425 -620h410v-40h-535v20l415 600h-240c-80 0 -125 -35 -125 -115h-20v75c0 40 15 80 85 80z" />
    <glyph glyph-name="bracketleft" unicode="[" horiz-adv-x="265" 
d="M255 -160v-40h-215v880h215v-40h-135v-800h135z" />
    <glyph glyph-name="backslash" unicode="\" horiz-adv-x="395" 
d="M385 -25l-35 -15l-340 740l35 15z" />
    <glyph glyph-name="bracketright" unicode="]" horiz-adv-x="265" 
d="M10 -200v40h135v800h-135v40h215v-880h-215z" />
    <glyph glyph-name="asciicircum" unicode="^" horiz-adv-x="490" 
d="M20 330l215 350h20l215 -350h-45l-180 290l-180 -290h-45z" />
    <glyph glyph-name="underscore" unicode="_" horiz-adv-x="400" 
d="M400 -170v-40h-400v40h400z" />
    <glyph glyph-name="grave" unicode="`" horiz-adv-x="220" 
d="M120 480l-110 200h100l60 -200h-50z" />
    <glyph glyph-name="a" unicode="a" horiz-adv-x="485" 
d="M325 95v135h-30c-100 0 -160 -40 -160 -100c0 -65 45 -95 95 -95s75 30 95 60zM415 0h-50l-35 45h-5c-20 -25 -65 -55 -140 -55c-55 0 -145 30 -145 140s120 140 255 140h30c0 140 -45 170 -105 170c-55 0 -95 -20 -110 -85h-45c0 35 0 65 25 90s90 35 150 35
c90 0 175 -30 175 -210v-270z" />
    <glyph glyph-name="b" unicode="b" horiz-adv-x="525" 
d="M170 410v-320c20 -30 50 -60 105 -60c80 0 115 90 115 205s-35 205 -125 205c-30 0 -65 -15 -95 -30zM80 0v540c0 60 -10 100 -70 100h-20v20h90c70 0 90 -20 90 -120v-90c30 15 70 30 125 30c130 0 190 -110 190 -245s-60 -245 -180 -245c-75 0 -115 30 -135 55h-5
l-35 -45h-50z" />
    <glyph glyph-name="c" unicode="c" horiz-adv-x="455" 
d="M250 480c70 0 120 -10 145 -35s25 -55 25 -130h-20c-5 85 -60 125 -130 125c-100 0 -145 -90 -145 -205s45 -205 145 -205c70 0 110 30 145 80l20 -15c-45 -75 -105 -105 -185 -105c-150 0 -220 110 -220 245s70 245 220 245z" />
    <glyph glyph-name="d" unicode="d" horiz-adv-x="525" 
d="M355 90v320c-30 15 -65 30 -95 30c-90 0 -125 -90 -125 -205s35 -205 115 -205c60 0 85 30 105 60zM445 540v-540h-50l-35 45h-5c-20 -25 -55 -55 -135 -55c-120 0 -180 110 -180 245s60 245 190 245c55 0 95 -15 125 -30v90c0 60 -10 100 -70 100h-20v20h90
c70 0 90 -20 90 -120z" />
    <glyph glyph-name="e" unicode="e" horiz-adv-x="475" 
d="M435 260l-2 -40h-298c0 -110 50 -190 135 -190c65 0 105 30 140 80l20 -15c-45 -75 -105 -105 -180 -105c-140 0 -210 110 -210 245s70 245 195 245c135 0 200 -80 200 -220zM135 260h210c0 110 -35 175 -105 175c-60 0 -105 -75 -105 -175z" />
    <glyph glyph-name="f" unicode="f" horiz-adv-x="355" 
d="M250 630c-45 0 -80 -30 -80 -130v-30h140v-40h-140v-430h-90v430h-70v40h70v30c0 140 90 170 175 170c40 0 70 -5 85 -15s25 -25 35 -45l-30 -25c-20 30 -50 45 -95 45z" />
    <glyph glyph-name="g" unicode="g" horiz-adv-x="480" 
d="M50 330c0 115 85 150 190 150h185v-25l-65 -10v-5c40 -20 70 -60 70 -110c0 -115 -85 -150 -190 -150c-70 0 -105 -10 -105 -35s35 -35 105 -35c120 0 220 -45 220 -155c0 -115 -95 -155 -220 -155s-220 40 -220 155c0 65 50 110 110 130c-20 10 -40 30 -40 60
s20 45 35 55c-40 20 -75 65 -75 130zM250 70l-55 5c-50 -20 -85 -55 -85 -120c0 -80 55 -115 130 -115s130 35 130 115c0 65 -40 105 -120 115zM340 330c0 80 -45 115 -100 115s-100 -30 -100 -115s45 -115 100 -115s100 30 100 115z" />
    <glyph glyph-name="h" unicode="h" horiz-adv-x="540" 
d="M170 540v-110c25 25 70 50 130 50c85 0 170 -35 170 -180v-300h-90v300c0 100 -55 135 -110 135c-40 0 -75 -25 -100 -53v-382h-90v540c0 60 -10 100 -70 100h-20v20h90c70 0 90 -20 90 -120z" />
    <glyph glyph-name="i" unicode="i" 
d="M170 350v-350h-90v350c0 60 -10 100 -70 100h-20v20h90c70 0 90 -20 90 -120zM164 575c0 -28 -18 -45 -46 -45c-31 0 -56 30 -56 64c0 28 18 45 46 45c31 0 56 -30 56 -64z" />
    <glyph glyph-name="j" unicode="j" 
d="M80 25v325c0 60 -10 100 -70 100h-20v20h90c70 0 90 -20 90 -120v-325c0 -150 -40 -215 -185 -215v20c65 0 95 75 95 195zM164 575c0 -28 -18 -45 -46 -45c-31 0 -56 30 -56 64c0 28 18 45 46 45c31 0 56 -30 56 -64z" />
    <glyph glyph-name="k" unicode="k" horiz-adv-x="475" 
d="M170 540v-295l125 160c30 39 65 65 130 65h30v-25c-35 0 -70 -14 -95 -45l-110 -140l125 -160c39 -50 70 -75 110 -81v-19c-10 -5 -30 -10 -50 -10c-50 0 -100 20 -145 80l-120 160v-230h-90v540c0 60 -10 100 -70 100h-20v20h90c70 0 90 -20 90 -120z" />
    <glyph glyph-name="l" unicode="l" 
d="M170 540v-540h-90v540c0 60 -10 100 -70 100h-20v20h90c70 0 90 -20 90 -120z" />
    <glyph glyph-name="m" unicode="m" horiz-adv-x="780" 
d="M165 430h5c25 25 70 50 130 50c50 0 95 -15 120 -70c35 45 95 70 150 70c75 0 140 -35 140 -180v-300h-90v300c0 100 -30 135 -80 135c-40 0 -85 -35 -105 -65c5 -15 5 -50 5 -70v-300h-90v300c0 100 -30 135 -80 135c-40 0 -75 -25 -100 -53v-382h-90v350
c0 60 -10 100 -70 100h-20v20h90c50 0 75 -15 85 -40z" />
    <glyph glyph-name="n" unicode="n" horiz-adv-x="540" 
d="M80 0v350c0 60 -10 100 -70 100h-20v20h90c50 0 75 -15 85 -40h5c25 25 70 50 130 50c85 0 170 -35 170 -180v-300h-90v300c0 100 -55 135 -110 135c-40 0 -75 -25 -100 -53v-382h-90z" />
    <glyph glyph-name="o" unicode="o" horiz-adv-x="500" 
d="M375 235c0 115 -50 205 -125 205s-125 -90 -125 -205s50 -205 125 -205s125 90 125 205zM30 235c0 135 80 245 220 245s220 -110 220 -245s-80 -245 -220 -245s-220 110 -220 245z" />
    <glyph glyph-name="p" unicode="p" horiz-adv-x="525" 
d="M170 380v-320c30 -15 65 -30 95 -30c90 0 125 90 125 205s-35 205 -115 205c-55 0 -85 -30 -105 -60zM80 -190v540c0 60 -10 100 -70 100h-20v20h90c50 0 75 -15 85 -45h5c20 25 60 55 135 55c120 0 180 -110 180 -245s-60 -245 -190 -245c-55 0 -95 15 -125 30v-210h-90
z" />
    <glyph glyph-name="q" unicode="q" horiz-adv-x="525" 
d="M355 60v320c-20 30 -50 60 -105 60c-80 0 -115 -90 -115 -205s35 -205 125 -205c30 0 65 15 95 30zM355 -190v210c-30 -15 -70 -30 -125 -30c-130 0 -190 110 -190 245s60 245 180 245c75 0 115 -30 135 -55h5l35 45h50v-660h-90z" />
    <glyph glyph-name="r" unicode="r" horiz-adv-x="405" 
d="M80 0v350c0 60 -10 100 -70 100h-10v20h80c50 0 75 -15 85 -45h5c20 25 60 55 120 55c20 0 45 -5 60 -15s25 -25 35 -45l-40 -30c-15 20 -45 30 -80 30c-40 0 -75 -20 -95 -50v-370h-90z" />
    <glyph glyph-name="s" unicode="s" horiz-adv-x="435" 
d="M395 120c0 -85 -75 -130 -175 -130c-80 0 -130 15 -155 40s-25 55 -25 105h20c10 -65 55 -105 140 -105c75 0 110 30 110 70s-30 65 -90 90l-60 25c-75 31 -120 70 -120 135c0 85 70 130 165 130c75 0 125 -15 150 -40s25 -55 25 -105h-20c-10 65 -55 105 -135 105
c-65 0 -100 -30 -100 -70c0 -35 30 -64 80 -85l60 -25c85 -35 130 -70 130 -140z" />
    <glyph glyph-name="t" unicode="t" horiz-adv-x="335" 
d="M80 120v310h-70v40h70v90l50 60h40v-150h120v-40h-120v-310c0 -60 25 -90 70 -90c35 0 55 10 75 20l10 -20c-20 -15 -55 -40 -125 -40s-120 40 -120 130z" />
    <glyph glyph-name="u" unicode="u" horiz-adv-x="540" 
d="M460 470v-470h-50l-35 40h-5c-25 -25 -70 -50 -130 -50c-85 0 -170 35 -170 180v180c0 60 -10 100 -70 100h-10v20h80c70 0 90 -20 90 -120v-180c0 -100 55 -135 110 -135c40 0 75 25 100 53v382h90z" />
    <glyph glyph-name="v" unicode="v" horiz-adv-x="474" 
d="M174 355l90 -215l140 330h50l-205 -480h-20l-155 365c-32 75 -55 100 -104 103v20c5 0 25 2 34 2c60 0 125 -20 170 -125z" />
    <glyph glyph-name="w" unicode="w" horiz-adv-x="725" 
d="M440 355l85 -210l130 325h50l-195 -480h-20l-125 310l-125 -310h-20l-145 365c-30 75 -56 100 -105 103v20c5 0 26 2 35 2c65 0 125 -25 165 -125l85 -210l85 215c-30 70 -55 95 -100 98v20c5 0 26 2 35 2c65 0 125 -25 165 -125z" />
    <glyph glyph-name="x" unicode="x" horiz-adv-x="450" 
d="M262 80l-62 105l-130 -185h-50l160 225l-87 145c-28 48 -63 75 -103 80v20h85c45 0 84 -31 113 -80l62 -105l130 185h50l-160 -225l87 -145c28 -48 63 -75 108 -80v-20h-90c-45 0 -84 31 -113 80z" />
    <glyph glyph-name="y" unicode="y" horiz-adv-x="485" 
d="M215 -65l20 55l-155 390c-20 50 -60 75 -110 80v20h85c60 0 100 -30 120 -80l110 -275l130 345h50l-200 -535c-41 -110 -85 -135 -155 -135h-30v30c60 0 104 20 135 105z" />
    <glyph glyph-name="z" unicode="z" horiz-adv-x="450" 
d="M115 470h305l-270 -430h270v-40h-390v19l260 411h-115c-85 0 -125 -35 -125 -90h-20v50c0 40 15 80 85 80z" />
    <glyph glyph-name="braceleft" unicode="{" horiz-adv-x="305" 
d="M20 225v30c75 10 100 60 100 115v140c0 90 45 150 165 180v-30c-70 -20 -85 -50 -85 -110v-170c0 -80 -35 -120 -105 -140c70 -20 105 -60 105 -140v-170c0 -60 15 -90 85 -110v-30c-120 30 -165 90 -165 180v140c0 55 -25 105 -100 115z" />
    <glyph glyph-name="bar" unicode="|" horiz-adv-x="240" 
d="M100 680h40v-870h-40v870z" />
    <glyph glyph-name="braceright" unicode="}" horiz-adv-x="285" 
d="M265 255v-30c-75 -10 -100 -60 -100 -115v-140c0 -90 -45 -150 -165 -180v30c70 20 85 50 85 110v170c0 80 35 120 105 140c-70 20 -105 60 -105 140v170c0 60 -15 90 -85 110v30c120 -30 165 -90 165 -180v-140c0 -55 25 -105 100 -115z" />
    <glyph glyph-name="asciitilde" unicode="~" horiz-adv-x="590" 
d="M430 180c-100 0 -190 80 -270 80c-50 0 -80 -30 -80 -70h-40c0 100 60 140 120 140c100 0 190 -80 270 -80c50 0 80 30 80 70h40c0 -100 -60 -140 -120 -140z" />
    <glyph glyph-name="exclamdown" unicode="&#xa1;" horiz-adv-x="268" 
d="M163 311l18 -505h-94l18 505h58zM134 372c-29 0 -54 24 -54 53c0 31 25 55 54 55s54 -24 54 -55c0 -29 -25 -53 -54 -53z" />
    <glyph glyph-name="cent" unicode="&#xa2;" horiz-adv-x="455" 
d="M230 520h40v-40c55 0 102 -13 125 -35c25 -25 25 -55 25 -130h-20c-5 85 -60 125 -130 125v-410c70 0 110 30 145 80l20 -15c-41 -69 -95 -100 -165 -105v-40h-40v40c-135 10 -200 116 -200 245s65 235 200 245v40zM125 235c0 -99 35 -180 105 -200v400
c-70 -20 -105 -102 -105 -200z" />
    <glyph glyph-name="sterling" unicode="&#xa3;" horiz-adv-x="475" 
d="M80 360v100c0 180 85 210 175 210c60 0 125 -10 150 -35s25 -55 25 -90h-45c-15 65 -55 85 -110 85c-60 0 -105 -30 -105 -170v-100h140v-40h-140v-100c0 -95 -20 -150 -55 -180h185c80 0 125 35 125 115h20v-75c0 -40 -15 -80 -85 -80h-365v25c55 15 85 65 85 195v100
h-70v40h70z" />
    <glyph glyph-name="currency" unicode="&#xa4;" horiz-adv-x="570" 
d="M270 350c83 2 150 37 150 140c0 100 -70 135 -155 135c-25 0 -55 -5 -75 -10v-265h80zM445 190l40 -85c26 -55 65 -80 105 -85v-20c-10 -5 -30 -10 -54 -10c-71 0 -116 30 -146 95l-40 85c-25 53 -60 70 -110 70h-50v-240h-90v240h-60v40h60v30h-60v40h60v190
c0 60 -10 100 -70 100h-20v20h260c130 0 250 -35 250 -170c0 -145 -120 -180 -250 -180h-80v-30h80c90 0 145 -25 175 -90z" />
    <glyph glyph-name="yen" unicode="&#xa5;" horiz-adv-x="629" 
d="M210 550l145 -225l209 335h45l-234 -380v-15h95v-40h-95v-40h95v-40h-95v-145h-90v145h-95v40h95v40h-95v40h95v8l-170 257c-40 60 -75 105 -145 110v20h90c75 0 115 -55 150 -110z" />
    <glyph glyph-name="brokenbar" unicode="&#xa6;" horiz-adv-x="240" 
d="M100 680h40v-350h-40v350zM100 160h40v-350h-40v350z" />
    <glyph glyph-name="section" unicode="&#xa7;" horiz-adv-x="450" 
d="M160 540c0 -140 230 -140 230 -295c0 -77 -40 -120 -106 -145c51 -34 91 -81 91 -150c0 -105 -70 -150 -155 -150c-55 0 -105 15 -130 40s-25 55 -25 105h20c10 -65 50 -105 105 -105c60 0 100 30 100 90c0 140 -230 140 -230 295c0 75 40 120 105 145
c-50 33 -90 81 -90 150c0 105 70 150 155 150c55 0 105 -15 130 -40s25 -55 25 -105h-20c-10 65 -50 105 -105 105c-60 0 -100 -30 -100 -90zM204 347c-39 -12 -69 -37 -69 -92s45 -95 111 -132c38 12 69 37 69 92s-45 95 -111 132z" />
    <glyph glyph-name="copyright" unicode="&#xa9;" horiz-adv-x="790" 
d="M395 685c205 0 355 -150 355 -355s-150 -355 -355 -355s-355 150 -355 355s150 355 355 355zM395 15c185 0 315 130 315 315s-130 315 -315 315s-315 -130 -315 -315s130 -315 315 -315zM561 412h-13c-16 85 -62 124 -133 124c-84 0 -156 -52 -156 -209
c0 -98 46 -195 156 -195c65 0 110 32 146 91l13 -10c-42 -81 -101 -108 -179 -108c-123 0 -200 98 -200 222c0 131 90 235 200 235c72 0 126 -24 149 -52c17 -20 17 -59 17 -98z" />
    <glyph glyph-name="guillemotleft" unicode="&#xab;" horiz-adv-x="330" 
d="M160 225l100 145h40l-60 -145l60 -145h-40zM215 420l-95 -195l95 -195h-40l-155 195l155 195h40z" />
    <glyph glyph-name="logicalnot" unicode="&#xac;" horiz-adv-x="585" 
d="M20 390v40h525v-200h-40v160h-485z" />
    <glyph glyph-name="uni00AD" unicode="&#xad;" horiz-adv-x="335" 
d="M40 230v70h255v-70h-255z" />
    <glyph glyph-name="registered" unicode="&#xae;" horiz-adv-x="790" 
d="M395 685c205 0 355 -150 355 -355s-150 -355 -355 -355s-355 150 -355 355s150 355 355 355zM395 15c185 0 315 130 315 315s-130 315 -315 315s-315 -130 -315 -315s130 -315 315 -315zM376 345c36 0 100 26 100 93c0 66 -64 92 -100 92c-16 0 -36 -4 -49 -7v-171
c13 -3 33 -7 49 -7zM442 211l-67 112h-48v-198h-58v349c0 39 -6 65 -45 65h-13v13h168c55 0 162 -13 162 -118c0 -73 -57 -99 -103 -107l72 -116c34 -53 53 -70 85 -74v-12c-6 -4 -23 -7 -42 -7c-42 0 -68 23 -111 93z" />
    <glyph glyph-name="afii10097" unicode="&#x44f;" horiz-adv-x="485" 
d="M405 350v-350h-90v200h-78l-60 -120c-30 -60 -65 -90 -122 -90c-20 0 -40 5 -55 10v20c45 5 75 45 95 80l60 105c-60 10 -115 55 -115 130c0 105 90 135 200 135h235v-20c-60 0 -70 -40 -70 -100zM315 245v180c-15 5 -45 10 -65 10c-70 0 -115 -30 -115 -100
s45 -100 115 -100c20 0 50 5 65 10z" />
    <glyph glyph-name="afii10065" unicode="&#x430;" horiz-adv-x="485" 
d="M325 95v135h-30c-100 0 -160 -40 -160 -100c0 -65 45 -95 95 -95s75 30 95 60zM415 0h-50l-35 45h-5c-20 -25 -65 -55 -140 -55c-55 0 -145 30 -145 140s120 140 255 140h30c0 140 -45 170 -105 170c-55 0 -95 -20 -110 -85h-45c0 35 0 65 25 90s90 35 150 35
c90 0 175 -30 175 -210v-270z" />
    <glyph glyph-name="afii10066" unicode="&#x431;" horiz-adv-x="485" 
d="M245 400c-60 0 -115 -45 -115 -185c0 -145 55 -185 115 -185s115 40 115 185c0 140 -55 185 -115 185zM395 570l-175 -40c-86 -20 -130 -65 -140 -230h5c25 100 80 140 180 140s190 -70 190 -225s-90 -225 -210 -225s-210 70 -210 240v40c0 245 40 305 145 330l150 35
c45 10 70 20 75 45h20v-65c0 -25 -10 -40 -30 -45z" />
    <glyph glyph-name="afii10067" unicode="&#x432;" horiz-adv-x="485" 
d="M215 225h-55v-180c15 -5 45 -10 65 -10c80 0 125 30 125 95s-45 95 -135 95zM160 425v-160h55c70 0 115 30 115 85s-45 85 -105 85c-20 0 -50 -5 -65 -10zM-10 470h245c100 0 190 -30 190 -120c0 -55 -30 -90 -100 -105c75 -15 120 -55 120 -115
c0 -100 -90 -130 -210 -130h-165v350c0 60 -10 100 -70 100h-10v20z" />
    <glyph glyph-name="afii10068" unicode="&#x433;" horiz-adv-x="405" 
d="M70 0v350c0 60 -10 100 -70 100h-10v20h330c60 0 75 -40 75 -80v-60h-20c0 65 -45 100 -105 100h-110v-430h-90z" />
    <glyph glyph-name="afii10069" unicode="&#x434;" horiz-adv-x="540" 
d="M125 350c0 60 -10 100 -70 100v20h400v-430h40c20 0 35 -15 35 -35v-160h-40c-10 110 -40 155 -105 155h-240c-65 0 -95 -45 -105 -155h-40v160c0 20 15 35 35 35h30c45 100 60 220 60 310zM150 40h215v390h-160c0 -170 -15 -290 -55 -390z" />
    <glyph glyph-name="afii10070" unicode="&#x435;" horiz-adv-x="475" 
d="M435 260l-2 -40h-298c0 -110 50 -190 135 -190c65 0 105 30 140 80l20 -15c-45 -75 -105 -105 -180 -105c-140 0 -210 110 -210 245s70 245 195 245c135 0 200 -80 200 -220zM135 260h210c0 110 -35 175 -105 175c-60 0 -105 -75 -105 -175z" />
    <glyph glyph-name="afii10072" unicode="&#x436;" horiz-adv-x="650" 
d="M280 230v240h90v-240l105 175c25 41 65 65 130 65h25v-25c-40 0 -76 -15 -95 -45l-95 -155l105 -145c35 -49 70 -75 115 -81v-19c-10 -5 -30 -10 -50 -10c-50 0 -95 25 -135 80l-105 145v-215h-90v215l-105 -145c-40 -55 -85 -80 -135 -80c-20 0 -40 5 -50 10v19
c45 6 80 32 115 81l105 145l-95 155c-19 30 -55 45 -95 45v25h25c65 0 105 -24 130 -65z" />
    <glyph glyph-name="afii10073" unicode="&#x437;" horiz-adv-x="435" 
d="M105 220v40h55c80 0 125 30 125 90s-45 90 -100 90c-70 0 -126 -40 -130 -105h-20c0 55 0 85 25 110s75 35 140 35c90 0 180 -30 180 -130c0 -60 -40 -95 -100 -110c70 -15 115 -55 115 -115c0 -105 -90 -135 -200 -135c-90 0 -140 35 -175 80l20 15
c25 -25 60 -55 135 -55c80 0 125 30 125 95s-45 95 -140 95h-55z" />
    <glyph glyph-name="afii10074" unicode="&#x438;" horiz-adv-x="550" 
d="M380 0v380l-210 -380h-90v350c0 60 -10 100 -70 100h-15v20h85c70 0 90 -20 90 -120v-260l210 380h90v-470h-90z" />
    <glyph glyph-name="afii10075" unicode="&#x439;" horiz-adv-x="550" 
d="M380 0v380l-210 -380h-90v350c0 60 -10 100 -70 100h-15v20h85c70 0 90 -20 90 -120v-260l210 380h90v-470h-90zM275 565c55 0 85 15 110 40l20 -15c-25 -45 -65 -80 -130 -80s-105 35 -130 80l20 15c25 -25 55 -40 110 -40z" />
    <glyph glyph-name="afii10076" unicode="&#x43a;" horiz-adv-x="470" 
d="M170 350v-120l125 175c29 40 65 65 130 65h25v-25c-30 0 -65 -10 -90 -45l-110 -155l115 -145c35 -45 70 -75 115 -81v-19c-10 -5 -30 -10 -50 -10c-50 0 -100 24 -145 80l-115 145v-215h-90v350c0 60 -10 100 -70 100h-20v20h90c70 0 90 -20 90 -120z" />
    <glyph glyph-name="afii10077" unicode="&#x43b;" horiz-adv-x="530" 
d="M200 430v-120c0 -240 -40 -320 -135 -320c-15 0 -40 5 -55 10v25c75 5 105 85 105 325c0 60 -10 100 -71 100v20h406v-470h-90v430h-160z" />
    <glyph glyph-name="afii10078" unicode="&#x43c;" horiz-adv-x="635" 
d="M465 365l-165 -365h-20l-170 375v-375h-40v470h95l150 -330l150 330h90v-320c0 -75 30 -150 75 -150v-20c-125 0 -165 65 -165 170v215z" />
    <glyph glyph-name="afii10079" unicode="&#x43d;" horiz-adv-x="540" 
d="M370 120v95h-200v-215h-90v350c0 60 -10 100 -70 100h-15v20h85c70 0 90 -20 90 -120v-95h200v215h90v-350c0 -60 10 -100 70 -100h15v-20h-85c-70 0 -90 20 -90 120z" />
    <glyph glyph-name="afii10080" unicode="&#x43e;" horiz-adv-x="500" 
d="M375 235c0 115 -50 205 -125 205s-125 -90 -125 -205s50 -205 125 -205s125 90 125 205zM30 235c0 135 80 245 220 245s220 -110 220 -245s-80 -245 -220 -245s-220 110 -220 245z" />
    <glyph glyph-name="afii10081" unicode="&#x43f;" horiz-adv-x="520" 
d="M460 470v-470h-90v430h-200v-430h-90v350c0 60 -10 100 -70 100h-10v20h460z" />
    <glyph glyph-name="afii10082" unicode="&#x440;" horiz-adv-x="525" 
d="M170 380v-320c30 -15 65 -30 95 -30c90 0 125 90 125 205s-35 205 -115 205c-55 0 -85 -30 -105 -60zM80 -190v540c0 60 -10 100 -70 100h-20v20h90c50 0 75 -15 85 -45h5c20 25 60 55 135 55c120 0 180 -110 180 -245s-60 -245 -190 -245c-55 0 -95 15 -125 30v-210h-90
z" />
    <glyph glyph-name="afii10083" unicode="&#x441;" horiz-adv-x="455" 
d="M250 480c70 0 120 -10 145 -35s25 -55 25 -130h-20c-5 85 -60 125 -130 125c-100 0 -145 -90 -145 -205s45 -205 145 -205c70 0 110 30 145 80l20 -15c-45 -75 -105 -105 -185 -105c-150 0 -220 110 -220 245s70 245 220 245z" />
    <glyph glyph-name="afii10084" unicode="&#x442;" horiz-adv-x="450" 
d="M185 430h-50c-60 0 -105 -35 -105 -100h-20v60c0 40 15 80 75 80h355v-40h-165v-430h-90v430z" />
    <glyph glyph-name="afii10085" unicode="&#x443;" horiz-adv-x="485" 
d="M215 -65l20 55l-155 390c-20 50 -60 75 -110 80v20h85c60 0 100 -30 120 -80l110 -275l130 345h50l-200 -535c-41 -110 -85 -135 -155 -135h-30v30c60 0 104 20 135 105z" />
    <glyph glyph-name="afii10086" unicode="&#x444;" horiz-adv-x="630" 
d="M359 445v-420c101 10 146 90 146 210s-45 200 -146 210zM270 480v60c0 60 -10 100 -70 100h-15v20h85c70 0 90 -20 90 -120v-60c160 -5 240 -110 240 -245s-80 -240 -240 -245v-180h-90v180c-160 5 -240 110 -240 245s80 240 240 245zM271 25v420
c-101 -10 -146 -90 -146 -210s45 -200 146 -210z" />
    <glyph glyph-name="afii10087" unicode="&#x445;" horiz-adv-x="450" 
d="M262 80l-62 105l-130 -185h-50l160 225l-87 145c-28 48 -63 75 -103 80v20h85c45 0 84 -31 113 -80l62 -105l130 185h50l-160 -225l87 -145c28 -48 63 -75 108 -80v-20h-90c-45 0 -84 31 -113 80z" />
    <glyph glyph-name="afii10088" unicode="&#x446;" horiz-adv-x="540" 
d="M390 0h-310v350c0 60 -10 100 -70 100h-15v20h85c70 0 90 -20 90 -120v-310h200v430h90v-430h40c20 0 35 -15 35 -35v-160h-40c-10 110 -40 155 -105 155z" />
    <glyph glyph-name="afii10089" unicode="&#x447;" horiz-adv-x="510" 
d="M245 215c40 0 75 10 95 18v237h90v-470h-90v193c-20 -8 -55 -18 -100 -18c-85 0 -180 25 -180 145v30c0 60 -10 100 -70 100h-10v20h85c70 0 90 -20 90 -120v-40c0 -70 45 -95 90 -95z" />
    <glyph glyph-name="afii10090" unicode="&#x448;" horiz-adv-x="740" 
d="M660 0h-580v350c0 60 -10 100 -70 100h-15v20h85c70 0 90 -20 90 -120v-310h155v430h90v-430h155v430h90v-470z" />
    <glyph glyph-name="afii10091" unicode="&#x449;" horiz-adv-x="740" 
d="M590 0h-510v350c0 60 -10 100 -70 100h-15v20h85c70 0 90 -20 90 -120v-310h155v430h90v-430h155v430h90v-430h40c20 0 35 -15 35 -35v-160h-40c-10 110 -40 155 -105 155z" />
    <glyph glyph-name="afii10092" unicode="&#x44a;" horiz-adv-x="540" 
d="M240 235v-190c15 -5 45 -10 65 -10c75 0 120 30 120 105s-45 105 -120 105c-20 0 -50 -5 -65 -10zM0 300v135c0 20 15 35 35 35h205v-190h75c115 0 205 -30 205 -140s-90 -140 -205 -140h-165v430h-10c-70 0 -110 -40 -115 -130h-25z" />
    <glyph glyph-name="afii10093" unicode="&#x44b;" horiz-adv-x="675" 
d="M170 235v-190c15 -5 45 -10 65 -10c65 0 110 30 110 105s-45 105 -110 105c-20 0 -50 -5 -65 -10zM170 350v-70h75c105 0 195 -30 195 -140s-90 -140 -195 -140h-165v350c0 60 -10 100 -70 100h-15v20h85c70 0 90 -20 90 -120zM505 120v350h90v-350
c0 -60 10 -100 70 -100h15v-20h-85c-70 0 -90 20 -90 120z" />
    <glyph glyph-name="afii10094" unicode="&#x44c;" horiz-adv-x="470" 
d="M170 235v-190c15 -5 45 -10 65 -10c75 0 120 30 120 105s-45 105 -120 105c-20 0 -50 -5 -65 -10zM170 350v-70h75c115 0 205 -30 205 -140s-90 -140 -205 -140h-165v350c0 60 -10 100 -70 100h-15v20h85c70 0 90 -20 90 -120z" />
    <glyph glyph-name="afii10095" unicode="&#x44d;" horiz-adv-x="455" 
d="M205 480c150 0 220 -110 220 -245s-70 -245 -220 -245c-80 0 -140 30 -185 105l20 15c35 -50 75 -80 145 -80c92 0 140 75 145 180h-210v40h210c-5 105 -50 190 -145 190c-70 0 -125 -40 -130 -125h-20c0 75 0 105 25 130s75 35 145 35z" />
    <glyph glyph-name="afii10096" unicode="&#x44e;" horiz-adv-x="670" 
d="M435 480c125 0 205 -100 205 -245s-80 -245 -205 -245c-119 0 -200 90 -205 225h-60v-215h-90v350c0 60 -10 100 -70 100h-15v20h85c70 0 90 -20 90 -120v-95h60c5 135 86 225 205 225zM435 440c-65 0 -110 -70 -110 -205s45 -205 110 -205s110 70 110 205
s-45 205 -110 205z" />
    <glyph glyph-name="afii10019" unicode="&#x412;" horiz-adv-x="605" 
d="M285 315h-95v-266c30 -9 65 -14 95 -14c120 0 190 50 190 140s-65 140 -190 140zM190 355h95c80 0 160 45 160 135c0 95 -100 135 -180 135c-25 0 -55 -5 -75 -10v-260zM10 660h260c105 0 270 -20 270 -175c0 -60 -40 -115 -130 -145c130 -20 165 -80 165 -160
c0 -150 -150 -180 -275 -180h-200v540c0 60 -10 100 -70 100h-20v20z" />
    <glyph glyph-name="afii10035" unicode="&#x421;" horiz-adv-x="635" 
d="M595 450h-20c-25 130 -95 190 -205 190c-130 0 -240 -80 -240 -320c0 -150 70 -300 240 -300c100 0 170 50 225 140l20 -15c-65 -125 -155 -165 -275 -165c-190 0 -310 150 -310 340c0 200 140 360 310 360c110 0 194 -36 230 -80c25 -30 25 -90 25 -150z" />
    <glyph glyph-name="afii10028" unicode="&#x41a;" horiz-adv-x="650" 
d="M10 660h90c70 0 90 -20 90 -120v-195l210 210c50 50 90 105 170 105h50v-25c-55 0 -90 -15 -145 -70l-195 -195l230 -240c54 -57 120 -105 170 -111v-19c-15 -5 -34 -10 -65 -10c-55 0 -120 20 -215 120l-210 220v-330h-90v540c0 60 -10 100 -70 100h-20v20z" />
    <glyph glyph-name="afii10030" unicode="&#x41c;" horiz-adv-x="860" 
d="M855 -25v-20c-145 0 -185 65 -185 215v385l-250 -555h-20l-260 565v-565h-40v660h95l240 -520l235 520h90v-490c0 -120 30 -195 95 -195z" />
    <glyph glyph-name="afii10032" unicode="&#x41e;" horiz-adv-x="680" 
d="M550 330c0 190 -80 310 -210 310s-210 -120 -210 -310s80 -310 210 -310s210 120 210 310zM30 330c0 196 120 350 310 350s310 -154 310 -350s-120 -350 -310 -350s-310 154 -310 350z" />
    <glyph glyph-name="afii10034" unicode="&#x420;" horiz-adv-x="550" 
d="M265 305c55 0 155 40 155 160s-100 160 -155 160c-25 0 -55 -5 -75 -10v-300c20 -5 50 -10 75 -10zM190 270v-270h-90v540c0 60 -10 100 -70 100h-20v20h260c85 0 250 -20 250 -200c0 -170 -165 -190 -220 -190h-110z" />
    <glyph glyph-name="afii10036" unicode="&#x422;" horiz-adv-x="550" 
d="M85 660h465v-40h-225v-620h-90v620h-90c-80 0 -125 -35 -125 -115h-20v75c0 40 15 80 85 80z" />
    <glyph glyph-name="afii10039" unicode="&#x425;" horiz-adv-x="640" 
d="M305 290l-225 -290h-50l250 325l-140 205c-34 50 -70 105 -160 110v20h120c65 0 106 -60 140 -110l100 -150l200 260h50l-225 -295l160 -235c34 -50 80 -105 145 -110v-20h-105c-65 0 -107 60 -140 110z" />
    <glyph glyph-name="afii10020" unicode="&#x413;" horiz-adv-x="510" 
d="M100 0v540c0 60 -10 100 -70 100h-20v20h415c70 0 85 -40 85 -80v-75h-20c0 80 -45 115 -125 115h-175v-620h-90z" />
    <glyph glyph-name="afii10018" unicode="&#x411;" horiz-adv-x="595" 
d="M465 190c0 105 -70 155 -180 155c-30 0 -65 -5 -95 -14v-282c30 -9 65 -14 95 -14c110 0 180 50 180 155zM10 660h421c70 0 85 -40 85 -80v-75h-20c0 80 -45 115 -125 115h-181v-240h110c115 0 265 -30 265 -190s-150 -190 -265 -190h-200v540c0 60 -10 100 -70 100h-20
v20z" />
    <glyph glyph-name="afii10024" unicode="&#x416;" horiz-adv-x="907" 
d="M130 130l190 240l-155 195c-45 57 -90 70 -135 70v25h50c70 0 116 -50 160 -105l170 -210v315h87v-315l170 210c44 55 90 105 160 105h50v-25c-45 0 -90 -13 -135 -70l-155 -195l190 -240c47 -59 115 -105 160 -111v-19c-15 -5 -34 -10 -65 -10c-45 0 -125 17 -205 120
l-170 220v-330h-87v330l-170 -220c-80 -103 -160 -120 -205 -120c-31 0 -50 5 -65 10v19c45 6 113 52 160 111z" />
    <glyph glyph-name="afii10025" unicode="&#x417;" horiz-adv-x="550" 
d="M135 315v40h95c90 0 170 50 170 145s-75 140 -150 140c-95 0 -165 -60 -190 -160h-20c0 60 0 100 25 130c36 44 120 70 190 70c100 0 240 -25 240 -185c0 -65 -45 -125 -140 -155c125 -25 165 -85 165 -170c0 -155 -150 -190 -260 -190c-100 0 -180 30 -240 125l20 15
c45 -60 110 -100 205 -100c105 0 175 55 175 145c0 95 -65 150 -190 150h-95z" />
    <glyph glyph-name="afii10033" unicode="&#x41f;" horiz-adv-x="650" 
d="M580 660v-660h-90v620h-300v-620h-90v540c0 60 -10 100 -70 100h-20v20h570z" />
    <glyph glyph-name="afii10046" unicode="&#x42c;" horiz-adv-x="595" 
d="M465 190c0 105 -70 155 -180 155c-30 0 -65 -5 -95 -14v-282c30 -9 65 -14 95 -14c110 0 180 50 180 155zM190 540v-160h110c115 0 265 -30 265 -190s-150 -190 -265 -190h-200v540c0 60 -10 100 -70 100h-20v20h90c70 0 90 -20 90 -120z" />
    <glyph glyph-name="afii10045" unicode="&#x42b;" horiz-adv-x="820" 
d="M190 540v-160h110c100 0 250 -30 250 -190s-150 -190 -250 -190h-200v540c0 60 -10 100 -70 100h-20v20h90c70 0 90 -20 90 -120zM450 190c0 105 -70 155 -165 155c-30 0 -65 -5 -95 -14v-282c30 -9 65 -14 95 -14c95 0 165 50 165 155zM630 120v540h90v-540
c0 -60 10 -100 70 -100h20v-20h-90c-70 0 -90 20 -90 120z" />
    <glyph glyph-name="afii10047" unicode="&#x42d;" horiz-adv-x="635" 
d="M60 450h-20c0 60 0 120 25 150c36 44 120 80 230 80c170 0 310 -160 310 -360c0 -190 -120 -340 -310 -340c-120 0 -210 40 -275 165l20 15c55 -90 125 -140 225 -140c166 0 235 145 240 290h-331v40h331c-10 215 -116 290 -240 290c-110 0 -180 -60 -205 -190z" />
    <glyph glyph-name="afii10048" unicode="&#x42e;" horiz-adv-x="850" 
d="M540 680c160 0 280 -140 280 -350s-120 -350 -280 -350c-158 0 -275 135 -280 340h-70v-320h-90v540c0 60 -10 100 -70 100h-20v20h90c70 0 90 -20 90 -120v-180h71c14 195 126 320 279 320zM540 640c-100 0 -180 -110 -180 -310s80 -310 180 -310s180 110 180 310
s-80 310 -180 310z" />
    <glyph glyph-name="afii10049" unicode="&#x42f;" horiz-adv-x="570" 
d="M390 0v270h-97l-105 -190c-39 -70 -80 -90 -138 -90c-20 0 -45 6 -60 11v19c50 5 84 35 110 80l105 180c-65 15 -145 61 -145 180c0 180 165 200 250 200h250v-20h-10c-60 0 -70 -40 -70 -100v-540h-90zM315 305c25 0 55 5 75 10v300c-20 5 -50 10 -75 10
c-55 0 -155 -40 -155 -160s100 -160 155 -160z" />
    <glyph glyph-name="afii10041" unicode="&#x427;" horiz-adv-x="610" 
d="M320 290c40 0 95 5 130 20v350h90v-660h-90v270c-35 -15 -95 -20 -135 -20c-135 0 -245 30 -245 210v80c0 60 -10 100 -70 100h-10v20h90c70 0 90 -20 90 -120v-90c0 -130 50 -160 150 -160z" />
    <glyph glyph-name="afii10031" unicode="&#x41d;" horiz-adv-x="680" 
d="M580 660v-540c0 -60 10 -100 70 -100h20v-20h-90c-70 0 -90 20 -90 120v200h-300v-320h-90v540c0 60 -10 100 -70 100h-20v20h90c70 0 90 -20 90 -120v-180h300v300h90z" />
    <glyph glyph-name="afii10026" unicode="&#x418;" horiz-adv-x="670" 
d="M510 0v570l-320 -570h-90v540c0 60 -10 100 -70 100h-20v20h90c70 0 90 -20 90 -120v-450l320 570h90v-660h-90z" />
    <glyph glyph-name="afii10027" unicode="&#x419;" horiz-adv-x="670" 
d="M510 0v570l-320 -570h-90v540c0 60 -10 100 -70 100h-20v20h90c70 0 90 -20 90 -120v-450l320 570h90v-660h-90zM350 760c55 0 90 20 110 45l20 -15c-25 -55 -65 -90 -130 -90s-105 35 -130 90l20 15c20 -25 55 -45 110 -45z" />
    <glyph glyph-name="afii10029" unicode="&#x41b;" horiz-adv-x="630" 
d="M65 660h495v-660h-90v620h-240v-120c0 -410 -60 -510 -170 -510c-20 0 -45 5 -60 10v25c95 5 145 105 145 515c0 60 -10 100 -70 100h-10v20z" />
    <glyph glyph-name="afii10021" unicode="&#x414;" horiz-adv-x="675" 
d="M160 40h325v580h-245c0 -270 -20 -445 -80 -580zM575 40h55c20 0 35 -15 35 -35v-185h-45c-15 135 -55 180 -125 180h-325c-70 0 -110 -45 -125 -180h-45v185c0 20 15 35 35 35h40c65 140 85 310 85 500c0 60 -10 100 -70 100h-15v20h500v-620z" />
    <glyph glyph-name="afii10044" unicode="&#x42a;" horiz-adv-x="680" 
d="M550 190c0 105 -70 155 -180 155c-30 0 -65 -5 -95 -14v-282c30 -9 65 -14 95 -14c110 0 180 50 180 155zM0 470v155c0 20 15 35 35 35h240v-280h110c115 0 265 -30 265 -190s-150 -190 -265 -190h-200v620h-30c-85 0 -120 -35 -125 -150h-30z" />
    <glyph glyph-name="afii10040" unicode="&#x426;" horiz-adv-x="680" 
d="M500 0h-400v540c0 60 -10 100 -70 100h-20v20h90c70 0 90 -20 90 -120v-500h300v620h90v-620h55c20 0 35 -15 35 -35v-185h-45c-15 135 -55 180 -125 180z" />
    <glyph glyph-name="afii10043" unicode="&#x429;" horiz-adv-x="940" 
d="M760 0h-660v540c0 60 -10 100 -70 100h-20v20h90c70 0 90 -20 90 -120v-500h235v620h90v-620h235v620h90v-620h55c20 0 35 -15 35 -35v-185h-45c-15 135 -55 180 -125 180z" />
    <glyph glyph-name="afii10042" unicode="&#x428;" horiz-adv-x="910" 
d="M840 0h-740v540c0 60 -10 100 -70 100h-20v20h90c70 0 90 -20 90 -120v-500h235v620h90v-620h235v620h90v-660z" />
    <glyph glyph-name="afii10038" unicode="&#x424;" horiz-adv-x="770" 
d="M130 315c0 -130 50 -240 210 -240v480c-160 0 -210 -110 -210 -240zM640 315c0 130 -50 240 -210 240v-480c160 0 210 110 210 240zM430 600v-5c210 0 310 -110 310 -280s-100 -280 -310 -280v-65h-90v65c-210 0 -310 110 -310 280s100 280 310 280v5c0 50 -20 70 -70 70
h-20v20h90c70 0 90 -20 90 -90z" />
    <glyph glyph-name="afii10037" unicode="&#x423;" horiz-adv-x="605" 
d="M280 95l10 25l-185 410c-25 55 -45 105 -135 110v20h120c65 0 95 -55 120 -110l135 -300l180 410h60l-246 -565c-28 -65 -79 -105 -159 -105h-50v30c60 0 126 15 150 75z" />
    <glyph glyph-name="afii10022" unicode="&#x415;" horiz-adv-x="585" 
d="M10 660h426c70 0 85 -40 85 -80v-75h-20c0 80 -45 115 -125 115h-186v-260h270v-40h-270v-280h175c90 0 140 30 170 110l20 -5l-35 -95c-11 -30 -35 -50 -75 -50h-345v540c0 60 -10 100 -70 100h-20v20z" />
    <glyph glyph-name="afii10023" unicode="&#x401;" horiz-adv-x="585" 
d="M245 780c0 -30 -20 -50 -50 -50s-50 20 -50 50s20 50 50 50s50 -20 50 -50zM425 780c0 -30 -20 -50 -50 -50s-50 20 -50 50s20 50 50 50s50 -20 50 -50zM10 660h426c70 0 85 -40 85 -80v-75h-20c0 80 -45 115 -125 115h-186v-260h270v-40h-270v-280h175
c90 0 140 30 170 110l20 -5l-35 -95c-11 -30 -35 -50 -75 -50h-345v540c0 60 -10 100 -70 100h-20v20z" />
    <glyph glyph-name="afii61352" unicode="&#x2116;" horiz-adv-x="945" 
d="M915 550c0 -70 -50 -120 -135 -120s-135 50 -135 120s50 120 135 120s135 -50 135 -120zM710 550c0 -55 30 -90 70 -90s70 35 70 90s-30 90 -70 90s-70 -35 -70 -90zM900 380v-40h-240v40h240zM100 0v540c0 60 -20 100 -90 100h-10v20h65c65 0 105 -23 135 -60l350 -435
v495h40v-670h-20l-430 535v-525h-40z" />
    <glyph glyph-name="Agrave" unicode="&#xc0;" horiz-adv-x="620" 
d="M660 20v-20c-10 -3 -25 -5 -40 -5c-45 0 -126 15 -170 130l-25 65h-280l-80 -190h-45l280 660h30l220 -535c31 -75 55 -100 110 -105zM285 520l-125 -290h245zM305 700l-105 150h100l45 -150h-40z" />
    <glyph glyph-name="Aacute" unicode="&#xc1;" horiz-adv-x="620" 
d="M660 20v-20c-10 -3 -25 -5 -40 -5c-45 0 -126 15 -170 130l-25 65h-280l-80 -190h-45l280 660h30l220 -535c31 -75 55 -100 110 -105zM285 520l-125 -290h245zM435 820l-105 -120h-40l55 120h90z" />
    <glyph glyph-name="Adieresis" unicode="&#xc4;" horiz-adv-x="620" 
d="M660 20v-20c-10 -3 -25 -5 -40 -5c-45 0 -126 15 -170 130l-25 65h-280l-80 -190h-45l280 660h30l220 -535c31 -75 55 -100 110 -105zM285 520l-125 -290h245zM450 740c0 -30 -20 -50 -50 -50s-50 20 -50 50s20 50 50 50s50 -20 50 -50zM280 740c0 -30 -20 -50 -50 -50
s-50 20 -50 50s20 50 50 50s50 -20 50 -50z" />
    <glyph glyph-name="AE" unicode="&#xc6;" horiz-adv-x="880" 
d="M370 660h361c70 0 85 -40 85 -80v-75h-20c0 80 -45 115 -125 115h-186v-260h270v-40h-270v-280h175c90 0 140 30 170 110l20 -5l-35 -95c-11 -30 -35 -50 -75 -50h-345v190h-240l-105 -190h-50zM395 615l-215 -385h215v385z" />
    <glyph glyph-name="Atilde" unicode="&#xc3;" horiz-adv-x="620" 
d="M660 20v-20c-10 -3 -25 -5 -40 -5c-45 0 -126 15 -170 130l-25 65h-280l-80 -190h-45l280 660h30l220 -535c31 -75 55 -100 110 -105zM285 520l-125 -290h245zM238 696h-30c0 70 20 90 60 90s55 -30 95 -30c15 0 30 15 30 30h30c0 -70 -20 -90 -60 -90s-55 30 -95 30
c-15 0 -30 -15 -30 -30z" />
    <glyph glyph-name="Acircumflex" unicode="&#xc2;" horiz-adv-x="620" 
d="M660 20v-20c-10 -3 -25 -5 -40 -5c-45 0 -126 15 -170 130l-25 65h-280l-80 -190h-45l280 660h30l220 -535c31 -75 55 -100 110 -105zM285 520l-125 -290h245zM400 675l-85 70l-85 -70h-40l80 105h90l80 -105h-40z" />
    <glyph glyph-name="Aring" unicode="&#xc5;" horiz-adv-x="620" 
d="M230 705c0 45 40 85 85 85s85 -40 85 -85s-30 -70 -55 -80l205 -500c31 -75 55 -100 110 -105v-20c-10 -3 -25 -5 -40 -5c-45 0 -126 15 -170 130l-25 65h-280l-80 -190h-45l265 625c-25 10 -55 35 -55 80zM285 520l-125 -290h245zM270 705c0 -20 10 -35 25 -45h40
c15 10 25 25 25 45c0 30 -20 50 -45 50s-45 -20 -45 -50z" />
    <glyph glyph-name="Igrave" unicode="&#xcc;" horiz-adv-x="290" 
d="M100 120v540h90v-540c0 -60 10 -100 70 -100h20v-20h-90c-70 0 -90 20 -90 120zM140 700l-105 150h100l45 -150h-40z" />
    <glyph glyph-name="Iacute" unicode="&#xcd;" horiz-adv-x="290" 
d="M100 120v540h90v-540c0 -60 10 -100 70 -100h20v-20h-90c-70 0 -90 20 -90 120zM265 820l-105 -120h-40l55 120h90z" />
    <glyph glyph-name="Icircumflex" unicode="&#xce;" horiz-adv-x="290" 
d="M100 120v540h90v-540c0 -60 10 -100 70 -100h20v-20h-90c-70 0 -90 20 -90 120zM230 685l-85 70l-85 -70h-40l80 105h90l80 -105h-40z" />
    <glyph glyph-name="Idieresis" unicode="&#xcf;" horiz-adv-x="290" 
d="M100 120v540h90v-540c0 -60 10 -100 70 -100h20v-20h-90c-70 0 -90 20 -90 120zM272 765c0 -30 -20 -50 -50 -50s-50 20 -50 50s20 50 50 50s50 -20 50 -50zM118 765c0 -30 -20 -50 -50 -50s-50 20 -50 50s20 50 50 50s50 -20 50 -50z" />
    <glyph glyph-name="Egrave" unicode="&#xc8;" horiz-adv-x="585" 
d="M10 660h426c70 0 85 -40 85 -80v-75h-20c0 80 -45 115 -125 115h-186v-260h270v-40h-270v-280h175c90 0 140 30 170 110l20 -5l-35 -95c-11 -30 -35 -50 -75 -50h-345v540c0 60 -10 100 -70 100h-20v20zM290 700l-105 150h100l45 -150h-40z" />
    <glyph glyph-name="Eacute" unicode="&#xc9;" horiz-adv-x="585" 
d="M10 660h426c70 0 85 -40 85 -80v-75h-20c0 80 -45 115 -125 115h-186v-260h270v-40h-270v-280h175c90 0 140 30 170 110l20 -5l-35 -95c-11 -30 -35 -50 -75 -50h-345v540c0 60 -10 100 -70 100h-20v20zM415 820l-105 -120h-40l55 120h90z" />
    <glyph glyph-name="Ecircumflex" unicode="&#xca;" horiz-adv-x="585" 
d="M10 660h426c70 0 85 -40 85 -80v-75h-20c0 80 -45 115 -125 115h-186v-260h270v-40h-270v-280h175c90 0 140 30 170 110l20 -5l-35 -95c-11 -30 -35 -50 -75 -50h-345v540c0 60 -10 100 -70 100h-20v20zM370 710l-85 70l-85 -70h-40l80 105h90l80 -105h-40z" />
    <glyph glyph-name="Edieresis" unicode="&#xcb;" horiz-adv-x="585" 
d="M245 780c0 -30 -20 -50 -50 -50s-50 20 -50 50s20 50 50 50s50 -20 50 -50zM425 780c0 -30 -20 -50 -50 -50s-50 20 -50 50s20 50 50 50s50 -20 50 -50zM10 660h426c70 0 85 -40 85 -80v-75h-20c0 80 -45 115 -125 115h-186v-260h270v-40h-270v-280h175
c90 0 140 30 170 110l20 -5l-35 -95c-11 -30 -35 -50 -75 -50h-345v540c0 60 -10 100 -70 100h-20v20z" />
    <glyph glyph-name="edieresis" unicode="&#xeb;" horiz-adv-x="475" 
d="M435 260l-2 -40h-298c0 -110 50 -190 135 -190c65 0 105 30 140 80l20 -15c-45 -75 -105 -105 -180 -105c-140 0 -210 110 -210 245s70 245 195 245c135 0 200 -80 200 -220zM135 260h210c0 110 -35 175 -105 175c-60 0 -105 -75 -105 -175zM365 580
c0 -25 -20 -45 -45 -45s-45 20 -45 45s20 45 45 45s45 -20 45 -45zM195 580c0 -25 -20 -45 -45 -45s-45 20 -45 45s20 45 45 45s45 -20 45 -45z" />
    <glyph glyph-name="idieresis" unicode="&#xef;" 
d="M170 350v-350h-90v350c0 60 -10 100 -70 100h-20v20h90c70 0 90 -20 90 -120zM91 575c0 -28 -18 -45 -46 -45c-31 0 -56 30 -56 64c0 28 18 45 46 45c31 0 56 -30 56 -64zM245 575c0 -28 -18 -45 -46 -45c-31 0 -56 30 -56 64c0 28 18 45 46 45c31 0 56 -30 56 -64z" />
    <glyph glyph-name="Eth" unicode="&#xd0;" horiz-adv-x="695" 
d="M25 310v40h75v190c0 60 -10 100 -70 100h-20v20h262c264 0 393 -126 393 -326c0 -195 -125 -334 -367 -334h-198v310h-75zM193 609v-259h87v-40h-87v-262c41 -9 75 -13 102 -13c148 0 261 114 261 295c0 177 -110 295 -263 295c-29 0 -64 -5 -100 -16z" />
    <glyph glyph-name="Ntilde" unicode="&#xd1;" horiz-adv-x="690" 
d="M100 0v540c0 60 -20 100 -90 100h-10v20h65c65 0 105 -23 135 -60l350 -435v495h40v-670h-20l-430 535v-525h-40zM267 685h-30c0 70 20 90 60 90s55 -30 95 -30c15 0 30 15 30 30h30c0 -70 -20 -90 -60 -90s-55 30 -95 30c-15 0 -30 -15 -30 -30z" />
    <glyph glyph-name="Ograve" unicode="&#xd2;" horiz-adv-x="680" 
d="M550 330c0 190 -80 310 -210 310s-210 -120 -210 -310s80 -310 210 -310s210 120 210 310zM30 330c0 196 120 350 310 350s310 -154 310 -350s-120 -350 -310 -350s-310 154 -310 350zM320 720l-105 150h100l45 -150h-40z" />
    <glyph glyph-name="Oacute" unicode="&#xd3;" horiz-adv-x="680" 
d="M550 330c0 190 -80 310 -210 310s-210 -120 -210 -310s80 -310 210 -310s210 120 210 310zM30 330c0 196 120 350 310 350s310 -154 310 -350s-120 -350 -310 -350s-310 154 -310 350zM445 840l-105 -120h-40l55 120h90z" />
    <glyph glyph-name="Ocircumflex" unicode="&#xd4;" horiz-adv-x="680" 
d="M550 330c0 190 -80 310 -210 310s-210 -120 -210 -310s80 -310 210 -310s210 120 210 310zM30 330c0 196 120 350 310 350s310 -154 310 -350s-120 -350 -310 -350s-310 154 -310 350zM425 710l-85 70l-85 -70h-40l80 105h90l80 -105h-40z" />
    <glyph glyph-name="Otilde" unicode="&#xd5;" horiz-adv-x="680" 
d="M550 330c0 190 -80 310 -210 310s-210 -120 -210 -310s80 -310 210 -310s210 120 210 310zM30 330c0 196 120 350 310 350s310 -154 310 -350s-120 -350 -310 -350s-310 154 -310 350zM262 728h-30c0 70 20 90 60 90s55 -30 95 -30c15 0 30 15 30 30h30
c0 -70 -20 -90 -60 -90s-55 30 -95 30c-15 0 -30 -15 -30 -30z" />
    <glyph glyph-name="Odieresis" unicode="&#xd6;" horiz-adv-x="680" 
d="M550 330c0 190 -80 310 -210 310s-210 -120 -210 -310s80 -310 210 -310s210 120 210 310zM30 330c0 196 120 350 310 350s310 -154 310 -350s-120 -350 -310 -350s-310 154 -310 350zM475 775c0 -30 -20 -50 -50 -50s-50 20 -50 50s20 50 50 50s50 -20 50 -50zM305 775
c0 -30 -20 -50 -50 -50s-50 20 -50 50s20 50 50 50s50 -20 50 -50z" />
    <glyph glyph-name="Oslash" unicode="&#xd8;" horiz-adv-x="680" 
d="M188 -40l-35 15l23 51c-92 60 -146 172 -146 304c0 196 120 350 310 350c46 0 88 -9 125 -26l28 61l35 -15l-29 -64c95 -59 151 -173 151 -306c0 -196 -120 -350 -310 -350c-48 0 -92 10 -130 27zM550 330c0 111 -28 199 -77 252l-241 -527c30 -23 66 -35 108 -35
c130 0 210 120 210 310zM130 330c0 -109 26 -194 72 -248l242 526c-30 21 -65 32 -104 32c-130 0 -210 -120 -210 -310z" />
    <glyph glyph-name="Ugrave" unicode="&#xd9;" horiz-adv-x="710" 
d="M100 285v255c0 60 -10 100 -70 100h-20v20h90c70 0 90 -20 90 -120v-285c0 -140 45 -225 177 -225c153 0 203 80 203 255v375h40v-375c0 -195 -50 -295 -255 -295c-195 0 -255 100 -255 295zM370 680l-105 150h100l45 -150h-40z" />
    <glyph glyph-name="Uacute" unicode="&#xda;" horiz-adv-x="710" 
d="M100 285v255c0 60 -10 100 -70 100h-20v20h90c70 0 90 -20 90 -120v-285c0 -140 45 -225 177 -225c153 0 203 80 203 255v375h40v-375c0 -195 -50 -295 -255 -295c-195 0 -255 100 -255 295zM465 800l-105 -120h-40l55 120h90z" />
    <glyph glyph-name="Ucircumflex" unicode="&#xdb;" horiz-adv-x="710" 
d="M100 285v255c0 60 -10 100 -70 100h-20v20h90c70 0 90 -20 90 -120v-285c0 -140 45 -225 177 -225c153 0 203 80 203 255v375h40v-375c0 -195 -50 -295 -255 -295c-195 0 -255 100 -255 295zM465 670l-85 70l-85 -70h-40l80 105h90l80 -105h-40z" />
    <glyph glyph-name="Udieresis" unicode="&#xdc;" horiz-adv-x="710" 
d="M100 285v255c0 60 -10 100 -70 100h-20v20h90c70 0 90 -20 90 -120v-285c0 -140 45 -225 177 -225c153 0 203 80 203 255v375h40v-375c0 -195 -50 -295 -255 -295c-195 0 -255 100 -255 295zM515 730c0 -30 -20 -50 -50 -50s-50 20 -50 50s20 50 50 50s50 -20 50 -50z
M345 730c0 -30 -20 -50 -50 -50s-50 20 -50 50s20 50 50 50s50 -20 50 -50z" />
    <glyph glyph-name="questiondown" unicode="&#xbf;" horiz-adv-x="466" 
d="M260 372c-31 0 -55 24 -55 55c0 29 26 54 55 54c31 0 54 -25 54 -54c0 -31 -23 -55 -54 -55zM240 312h40c-5 -164 -150 -184 -150 -334c0 -100 60 -150 130 -150c80 0 146 60 166 170h20c0 -50 0 -100 -25 -130c-36 -44 -111 -80 -191 -80s-200 30 -200 190
c0 170 205 200 210 334z" />
    <glyph glyph-name="Yacute" unicode="&#xdd;" horiz-adv-x="629" 
d="M210 550l145 -225l209 335h45l-234 -380v-280h-90v273l-170 257c-40 60 -75 105 -145 110v20h90c75 0 115 -55 150 -110zM455 800l-105 -120h-40l55 120h90z" />
    <glyph glyph-name="Thorn" unicode="&#xde;" horiz-adv-x="530" 
d="M400 315c0 115 -60 195 -210 195v-390c150 0 210 80 210 195zM190 600v-50c200 0 310 -80 310 -235s-110 -235 -310 -235v-110h-90v630c0 50 -20 70 -70 70h-20v20h90c70 0 90 -20 90 -90z" />
    <glyph glyph-name="agrave" unicode="&#xe0;" horiz-adv-x="485" 
d="M325 95v135h-30c-100 0 -160 -40 -160 -100c0 -65 45 -95 95 -95s75 30 95 60zM415 0h-50l-35 45h-5c-20 -25 -65 -55 -140 -55c-55 0 -145 30 -145 140s120 140 255 140h30c0 140 -45 170 -105 170c-55 0 -95 -20 -110 -85h-45c0 35 0 65 25 90s90 35 150 35
c90 0 175 -30 175 -210v-270zM230 525l-105 150h100l45 -150h-40z" />
    <glyph glyph-name="aacute" unicode="&#xe1;" horiz-adv-x="485" 
d="M325 95v135h-30c-100 0 -160 -40 -160 -100c0 -65 45 -95 95 -95s75 30 95 60zM415 0h-50l-35 45h-5c-20 -25 -65 -55 -140 -55c-55 0 -145 30 -145 140s120 140 255 140h30c0 140 -45 170 -105 170c-55 0 -95 -20 -110 -85h-45c0 35 0 65 25 90s90 35 150 35
c90 0 175 -30 175 -210v-270zM350 645l-105 -120h-40l55 120h90z" />
    <glyph glyph-name="acircumflex" unicode="&#xe2;" horiz-adv-x="485" 
d="M325 95v135h-30c-100 0 -160 -40 -160 -100c0 -65 45 -95 95 -95s75 30 95 60zM415 0h-50l-35 45h-5c-20 -25 -65 -55 -140 -55c-55 0 -145 30 -145 140s120 140 255 140h30c0 140 -45 170 -105 170c-55 0 -95 -20 -110 -85h-45c0 35 0 65 25 90s90 35 150 35
c90 0 175 -30 175 -210v-270zM325 520l-85 70l-85 -70h-40l80 105h90l80 -105h-40z" />
    <glyph glyph-name="atilde" unicode="&#xe3;" horiz-adv-x="485" 
d="M325 95v135h-30c-100 0 -160 -40 -160 -100c0 -65 45 -95 95 -95s75 30 95 60zM415 0h-50l-35 45h-5c-20 -25 -65 -55 -140 -55c-55 0 -145 30 -145 140s120 140 255 140h30c0 140 -45 170 -105 170c-55 0 -95 -20 -110 -85h-45c0 35 0 65 25 90s90 35 150 35
c90 0 175 -30 175 -210v-270zM160 535h-30c0 70 20 90 60 90s55 -30 95 -30c15 0 30 15 30 30h30c0 -70 -20 -90 -60 -90s-55 30 -95 30c-15 0 -30 -15 -30 -30z" />
    <glyph glyph-name="adieresis" unicode="&#xe4;" horiz-adv-x="485" 
d="M325 95v135h-30c-100 0 -160 -40 -160 -100c0 -65 45 -95 95 -95s75 30 95 60zM415 0h-50l-35 45h-5c-20 -25 -65 -55 -140 -55c-55 0 -145 30 -145 140s120 140 255 140h30c0 140 -45 170 -105 170c-55 0 -95 -20 -110 -85h-45c0 35 0 65 25 90s90 35 150 35
c90 0 175 -30 175 -210v-270zM360 580c0 -25 -20 -45 -45 -45s-45 20 -45 45s20 45 45 45s45 -20 45 -45zM190 580c0 -25 -20 -45 -45 -45s-45 20 -45 45s20 45 45 45s45 -20 45 -45z" />
    <glyph glyph-name="aring" unicode="&#xe5;" horiz-adv-x="485" 
d="M325 95v135h-30c-100 0 -160 -40 -160 -100c0 -65 45 -95 95 -95s75 30 95 60zM415 0h-50l-35 45h-5c-20 -25 -65 -55 -140 -55c-55 0 -145 30 -145 140s120 140 255 140h30c0 140 -45 170 -105 170c-55 0 -95 -20 -110 -85h-45c0 35 0 65 25 90s90 35 150 35
c90 0 175 -30 175 -210v-270zM150 615c0 45 40 85 85 85s85 -40 85 -85s-40 -85 -85 -85s-85 40 -85 85zM280 615c0 30 -20 50 -45 50s-45 -20 -45 -50s20 -50 45 -50s45 20 45 50z" />
    <glyph glyph-name="egrave" unicode="&#xe8;" horiz-adv-x="475" 
d="M435 260l-2 -40h-298c0 -110 50 -190 135 -190c65 0 105 30 140 80l20 -15c-45 -75 -105 -105 -180 -105c-140 0 -210 110 -210 245s70 245 195 245c135 0 200 -80 200 -220zM135 260h210c0 110 -35 175 -105 175c-60 0 -105 -75 -105 -175zM220 525l-105 150h100
l45 -150h-40z" />
    <glyph glyph-name="eacute" unicode="&#xe9;" horiz-adv-x="475" 
d="M435 260l-2 -40h-298c0 -110 50 -190 135 -190c65 0 105 30 140 80l20 -15c-45 -75 -105 -105 -180 -105c-140 0 -210 110 -210 245s70 245 195 245c135 0 200 -80 200 -220zM135 260h210c0 110 -35 175 -105 175c-60 0 -105 -75 -105 -175zM340 645l-105 -120h-40
l55 120h90z" />
    <glyph glyph-name="ecircumflex" unicode="&#xea;" horiz-adv-x="475" 
d="M435 260l-2 -40h-298c0 -110 50 -190 135 -190c65 0 105 30 140 80l20 -15c-45 -75 -105 -105 -180 -105c-140 0 -210 110 -210 245s70 245 195 245c135 0 200 -80 200 -220zM135 260h210c0 110 -35 175 -105 175c-60 0 -105 -75 -105 -175zM320 515l-85 70l-85 -70h-40
l80 105h90l80 -105h-40z" />
    <glyph glyph-name="igrave" unicode="&#xec;" 
d="M170 350v-350h-90v350c0 60 -10 100 -70 100h-20v20h90c70 0 90 -20 90 -120zM110 525l-105 150h100l45 -150h-40z" />
    <glyph glyph-name="iacute" unicode="&#xed;" 
d="M170 350v-350h-90v350c0 60 -10 100 -70 100h-20v20h90c70 0 90 -20 90 -120zM230 645l-105 -120h-40l55 120h90z" />
    <glyph glyph-name="icircumflex" unicode="&#xee;" 
d="M170 350v-350h-90v350c0 60 -10 100 -70 100h-20v20h90c70 0 90 -20 90 -120zM210 520l-85 70l-85 -70h-40l80 105h90l80 -105h-40z" />
    <glyph glyph-name="ntilde" unicode="&#xf1;" horiz-adv-x="550" 
d="M80 0v350c0 60 -10 100 -70 100h-20v20h90c50 0 75 -15 85 -40h5c25 25 70 50 130 50c85 0 170 -35 170 -180v-300h-90v300c0 100 -55 135 -110 135c-40 0 -75 -25 -100 -53v-382h-90zM205 535h-30c0 70 20 90 60 90s55 -30 95 -30c15 0 30 15 30 30h30
c0 -70 -20 -90 -60 -90s-55 30 -95 30c-15 0 -30 -15 -30 -30z" />
    <glyph glyph-name="ograve" unicode="&#xf2;" horiz-adv-x="500" 
d="M375 235c0 115 -50 205 -125 205s-125 -90 -125 -205s50 -205 125 -205s125 90 125 205zM30 235c0 135 80 245 220 245s220 -110 220 -245s-80 -245 -220 -245s-220 110 -220 245zM240 525l-105 150h100l45 -150h-40z" />
    <glyph glyph-name="oacute" unicode="&#xf3;" horiz-adv-x="500" 
d="M375 235c0 115 -50 205 -125 205s-125 -90 -125 -205s50 -205 125 -205s125 90 125 205zM30 235c0 135 80 245 220 245s220 -110 220 -245s-80 -245 -220 -245s-220 110 -220 245zM365 645l-105 -120h-40l55 120h90z" />
    <glyph glyph-name="ocircumflex" unicode="&#xf4;" horiz-adv-x="500" 
d="M375 235c0 115 -50 205 -125 205s-125 -90 -125 -205s50 -205 125 -205s125 90 125 205zM30 235c0 135 80 245 220 245s220 -110 220 -245s-80 -245 -220 -245s-220 110 -220 245zM335 515l-85 70l-85 -70h-40l80 105h90l80 -105h-40z" />
    <glyph glyph-name="otilde" unicode="&#xf5;" horiz-adv-x="500" 
d="M375 235c0 115 -50 205 -125 205s-125 -90 -125 -205s50 -205 125 -205s125 90 125 205zM30 235c0 135 80 245 220 245s220 -110 220 -245s-80 -245 -220 -245s-220 110 -220 245zM170 535h-30c0 70 20 90 60 90s55 -30 95 -30c15 0 30 15 30 30h30
c0 -70 -20 -90 -60 -90s-55 30 -95 30c-15 0 -30 -15 -30 -30z" />
    <glyph glyph-name="odieresis" unicode="&#xf6;" horiz-adv-x="500" 
d="M375 235c0 115 -50 205 -125 205s-125 -90 -125 -205s50 -205 125 -205s125 90 125 205zM30 235c0 135 80 245 220 245s220 -110 220 -245s-80 -245 -220 -245s-220 110 -220 245zM380 580c0 -25 -20 -45 -45 -45s-45 20 -45 45s20 45 45 45s45 -20 45 -45zM210 580
c0 -25 -20 -45 -45 -45s-45 20 -45 45s20 45 45 45s45 -20 45 -45z" />
    <glyph glyph-name="ugrave" unicode="&#xf9;" horiz-adv-x="540" 
d="M460 470v-470h-50l-35 40h-5c-25 -25 -70 -50 -130 -50c-85 0 -170 35 -170 180v180c0 60 -10 100 -70 100h-10v20h80c70 0 90 -20 90 -120v-180c0 -100 55 -135 110 -135c40 0 75 25 100 53v382h90zM250 500l-105 150h100l45 -150h-40z" />
    <glyph glyph-name="uacute" unicode="&#xfa;" horiz-adv-x="540" 
d="M460 470v-470h-50l-35 40h-5c-25 -25 -70 -50 -130 -50c-85 0 -170 35 -170 180v180c0 60 -10 100 -70 100h-10v20h80c70 0 90 -20 90 -120v-180c0 -100 55 -135 110 -135c40 0 75 25 100 53v382h90zM370 620l-105 -120h-40l55 120h90z" />
    <glyph glyph-name="ucircumflex" unicode="&#xfb;" horiz-adv-x="540" 
d="M460 470v-470h-50l-35 40h-5c-25 -25 -70 -50 -130 -50c-85 0 -170 35 -170 180v180c0 60 -10 100 -70 100h-10v20h80c70 0 90 -20 90 -120v-180c0 -100 55 -135 110 -135c40 0 75 25 100 53v382h90zM350 510l-85 70l-85 -70h-40l80 105h90l80 -105h-40z" />
    <glyph glyph-name="udieresis" unicode="&#xfc;" horiz-adv-x="540" 
d="M460 470v-470h-50l-35 40h-5c-25 -25 -70 -50 -130 -50c-85 0 -170 35 -170 180v180c0 60 -10 100 -70 100h-10v20h80c70 0 90 -20 90 -120v-180c0 -100 55 -135 110 -135c40 0 75 25 100 53v382h90zM395 555c0 -25 -20 -45 -45 -45s-45 20 -45 45s20 45 45 45
s45 -20 45 -45zM225 555c0 -25 -20 -45 -45 -45s-45 20 -45 45s20 45 45 45s45 -20 45 -45z" />
    <glyph glyph-name="yacute" unicode="&#xfd;" horiz-adv-x="485" 
d="M215 -65l20 55l-155 390c-20 50 -60 75 -110 80v20h85c60 0 100 -30 120 -80l110 -275l130 345h50l-200 -535c-41 -110 -85 -135 -155 -135h-30v30c60 0 104 20 135 105zM395 620l-105 -120h-40l55 120h90z" />
    <glyph glyph-name="ydieresis" unicode="&#xff;" horiz-adv-x="485" 
d="M215 -65l20 55l-155 390c-20 50 -60 75 -110 80v20h85c60 0 100 -30 120 -80l110 -275l130 345h50l-200 -535c-41 -110 -85 -135 -155 -135h-30v30c60 0 104 20 135 105zM410 555c0 -25 -20 -45 -45 -45s-45 20 -45 45s20 45 45 45s45 -20 45 -45zM240 555
c0 -25 -20 -45 -45 -45s-45 20 -45 45s20 45 45 45s45 -20 45 -45z" />
    <glyph glyph-name="oslash" unicode="&#xf8;" horiz-adv-x="500" 
d="M150 -30l-35 15l17 37c-66 43 -102 122 -102 213c0 135 80 245 220 245c31 0 59 -5 84 -15l16 35l35 -15l-17 -38c66 -42 102 -122 102 -212c0 -135 -80 -245 -220 -245c-31 0 -59 5 -84 15zM375 235c0 59 -13 111 -36 148l-151 -329c18 -15 39 -24 62 -24
c75 0 125 90 125 205zM125 235c0 -59 13 -112 36 -149l150 330c-17 15 -38 24 -61 24c-75 0 -125 -90 -125 -205z" />
    <glyph glyph-name="thorn" unicode="&#xfe;" horiz-adv-x="525" 
d="M170 380v-320c30 -15 65 -30 95 -30c90 0 125 90 125 205s-35 205 -115 205c-55 0 -85 -30 -105 -60zM170 480v-55c20 25 60 55 135 55c120 0 180 -110 180 -245s-60 -245 -190 -245c-55 0 -95 15 -125 30v-210h-90v730c0 60 -10 100 -70 100h-15v20h85
c70 0 90 -20 90 -120v-60z" />
    <glyph glyph-name="ae" unicode="&#xe6;" horiz-adv-x="755" 
d="M715 260l-2 -40h-298c0 -110 50 -190 135 -190c65 0 105 30 140 80l20 -15c-45 -75 -105 -105 -180 -105c-78 0 -135 30 -170 85c-30 -55 -73 -85 -160 -85c-70 0 -160 30 -160 135s120 135 255 135h30c0 150 -45 180 -105 180c-55 0 -95 -20 -110 -85h-45
c0 35 0 65 25 90s90 35 150 35c70 0 120 -40 140 -90c20 50 70 90 135 90c135 0 200 -80 200 -220zM415 260h210c0 110 -35 175 -105 175c-60 0 -105 -75 -105 -175zM325 95v125h-30c-100 0 -160 -40 -160 -95c0 -60 45 -90 95 -90s75 30 95 60z" />
    <glyph glyph-name="OE" unicode="&#x152;" horiz-adv-x="930" 
d="M30 330c0 196 120 350 310 350c40 0 75 -5 110 -20h331c70 0 85 -40 85 -80v-75h-20c0 80 -45 115 -125 115h-186v-260h270v-40h-270v-280h175c90 0 140 30 170 110l20 -5l-35 -95c-11 -30 -35 -50 -75 -50h-340c-35 -15 -70 -20 -110 -20c-190 0 -310 154 -310 350z
M340 20c40 0 75 10 105 32v558c-30 20 -65 30 -105 30c-130 0 -210 -120 -210 -310s80 -310 210 -310z" />
    <glyph glyph-name="Ydieresis" unicode="&#x178;" horiz-adv-x="629" 
d="M210 550l145 -225l209 335h45l-234 -380v-280h-90v273l-170 257c-40 60 -75 105 -145 110v20h90c75 0 115 -55 150 -110zM480 740c0 -30 -20 -50 -50 -50s-50 20 -50 50s20 50 50 50s50 -20 50 -50zM310 740c0 -30 -20 -50 -50 -50s-50 20 -50 50s20 50 50 50
s50 -20 50 -50z" />
    <glyph glyph-name="Zcaron" unicode="&#x17d;" horiz-adv-x="610" 
d="M145 660h435l-425 -620h410v-40h-535v20l415 600h-240c-80 0 -125 -35 -125 -115h-20v75c0 40 15 80 85 80zM325 745l85 70h40l-80 -105h-90l-80 105h40z" />
    <glyph glyph-name="zcaron" unicode="&#x17e;" horiz-adv-x="450" 
d="M115 470h305l-270 -430h270v-40h-390v19l260 411h-115c-85 0 -125 -35 -125 -90h-20v50c0 40 15 80 85 80zM230 550l85 70h40l-80 -105h-90l-80 105h40z" />
    <glyph glyph-name="oe" unicode="&#x153;" horiz-adv-x="775" 
d="M735 260l-2 -40h-298c0 -110 50 -190 135 -190c65 0 105 30 140 80l20 -15c-45 -75 -105 -105 -180 -105c-65 0 -115 25 -150 60c-35 -35 -85 -60 -150 -60c-140 0 -220 110 -220 245s80 245 220 245c65 0 115 -20 151 -59c32 37 77 59 134 59c135 0 200 -80 200 -220z
M250 30c50 0 85 35 110 95c-10 25 -20 65 -20 110s10 85 20 110c-20 55 -60 95 -110 95c-75 0 -125 -90 -125 -205s50 -205 125 -205zM435 260h210c0 110 -35 175 -105 175c-60 0 -105 -75 -105 -175z" />
    <glyph glyph-name="scaron" unicode="&#x161;" horiz-adv-x="435" 
d="M395 120c0 -85 -75 -130 -175 -130c-80 0 -130 15 -155 40s-25 55 -25 105h20c10 -65 55 -105 140 -105c75 0 110 30 110 70s-30 65 -90 90l-60 25c-75 31 -120 70 -120 135c0 85 70 130 165 130c75 0 125 -15 150 -40s25 -55 25 -105h-20c-10 65 -55 105 -135 105
c-65 0 -100 -30 -100 -70c0 -35 30 -64 80 -85l60 -25c85 -35 130 -70 130 -140zM215 555l85 70h40l-80 -105h-90l-80 105h40z" />
    <glyph glyph-name="Scaron" unicode="&#x160;" horiz-adv-x="526" 
d="M481 165c0 -112 -79 -185 -208 -185c-109 0 -228 47 -228 122v107h18c22 -134 89 -189 201 -189c69 0 131 36 131 102c0 58 -37 95 -110 138l-123 73c-85 50 -117 98 -117 172c0 103 77 170 194 170c99 0 216 -45 216 -120v-107h-18c-22 134 -86 187 -198 187
c-59 0 -116 -39 -116 -101c0 -58 38 -88 111 -131l123 -73c85 -50 124 -91 124 -165zM245 755l85 70h40l-80 -105h-90l-80 105h40z" />
    <glyph glyph-name="Ccedilla" unicode="&#xc7;" horiz-adv-x="635" 
d="M595 450h-20c-25 130 -95 190 -205 190c-130 0 -240 -80 -240 -320c0 -150 70 -300 240 -300c100 0 170 50 225 140l20 -15c-62 -118 -145 -160 -255 -165v-31c50 0 80 -20 80 -70s-30 -70 -120 -70v30c60 0 80 10 80 40s-20 40 -80 40v61c-180 10 -290 157 -290 340
c0 200 140 360 310 360c110 0 194 -36 230 -80c25 -30 25 -90 25 -150z" />
    <glyph glyph-name="ccedilla" unicode="&#xe7;" horiz-adv-x="455" 
d="M250 480c70 0 120 -10 145 -35s25 -55 25 -130h-20c-5 85 -60 125 -130 125c-100 0 -145 -90 -145 -205s45 -205 145 -205c70 0 110 30 145 80l20 -15c-43 -72 -100 -100 -175 -105v-31c50 -2 80 -20 80 -70s-30 -70 -120 -70v30c60 0 80 10 80 40s-20 40 -80 40v61
c-130 15 -190 120 -190 245c0 135 70 245 220 245z" />
    <glyph glyph-name="onesuperior" unicode="&#xb9;" horiz-adv-x="163" 
d="M103 680v-303h-41v257l-45 -27l-7 9l70 64h23z" />
    <glyph glyph-name="onequarter" unicode="&#xbc;" horiz-adv-x="630" 
d="M110 0h-45l455 660h45zM110 0h-45l455 660h45zM180 680v-303h-41v257l-45 -27l-7 9l70 64h23zM520 304v-207h41v-19h-41v-78h-41v78h-146v19l151 207h36zM360 97h119v162z" />
    <glyph glyph-name="onehalf" unicode="&#xbd;" horiz-adv-x="630" 
d="M110 0h-45l455 660h45zM110 0h-45l455 660h45zM180 680v-303h-41v257l-45 -27l-7 9l70 64h23zM412 18h102c37 0 57 16 57 48h9v-30c0 -18 -7 -36 -39 -36h-161v23c95 94 148 133 148 202c0 46 -28 69 -59 69c-37 0 -67 -28 -76 -78h-9c0 23 0 46 11 60c17 20 51 36 87 36
c37 0 91 -13 91 -87c0 -78 -77 -127 -161 -207z" />
    <glyph glyph-name="threequarters" unicode="&#xbe;" horiz-adv-x="631" 
d="M111 0h-45l455 660h45zM111 0h-45l455 660h45zM521 304v-207h41v-19h-41v-78h-41v78h-146v19l151 207h36zM361 97h119v162zM241 662l-118 -115c16 4 35 4 41 4c27 0 96 -13 96 -89c0 -81 -69 -95 -107 -95c-46 0 -73 19 -98 49l6 9c23 -25 51 -39 85 -39
c36 0 68 23 68 76c0 48 -32 71 -59 71c-28 0 -34 -2 -55 -7l-11 16l118 120h-80c-36 0 -57 -16 -57 -49h-9v30c0 19 7 37 39 37h141v-18z" />
    <glyph glyph-name="twosuperior" unicode="&#xb2;" horiz-adv-x="290" 
d="M77 395h102c37 0 57 16 57 48h9v-30c0 -18 -7 -36 -39 -36h-161v23c95 94 148 133 148 202c0 46 -28 69 -59 69c-37 0 -67 -28 -76 -78h-9c0 23 0 46 11 60c17 20 51 36 87 36c37 0 91 -13 91 -87c0 -78 -77 -127 -161 -207z" />
    <glyph glyph-name="threesuperior" unicode="&#xb3;" horiz-adv-x="295" 
d="M226 662l-118 -115c16 4 35 4 41 4c27 0 96 -13 96 -89c0 -81 -69 -95 -107 -95c-46 0 -73 19 -98 49l6 9c23 -25 51 -39 85 -39c36 0 68 23 68 76c0 48 -32 71 -59 71c-28 0 -34 -2 -55 -7l-11 16l118 120h-80c-36 0 -57 -16 -57 -49h-9v30c0 19 7 37 39 37h141v-18z
" />
    <glyph glyph-name="ordmasculine" unicode="&#xba;" horiz-adv-x="319" 
d="M159 671c-50 0 -63 -46 -63 -143c0 -96 13 -142 63 -142c51 0 64 46 64 142c0 97 -13 143 -64 143zM159 689c80 0 110 -64 110 -161c0 -96 -30 -161 -110 -161c-79 0 -109 65 -109 161c0 97 30 161 109 161z" />
    <glyph glyph-name="multiply" unicode="&#xd7;" horiz-adv-x="504" 
d="M401 154l-149 148l-148 -148l-29 28l149 148l-149 149l29 28l148 -148l149 148l28 -28l-149 -149l149 -148z" />
    <glyph glyph-name="divide" unicode="&#xf7;" horiz-adv-x="500" 
d="M470 310h-440v40h440v-40zM295 190c0 -25 -20 -45 -45 -45s-45 20 -45 45s20 45 45 45s45 -20 45 -45zM295 470c0 -25 -20 -45 -45 -45s-45 20 -45 45s20 45 45 45s45 -20 45 -45z" />
    <glyph glyph-name="eth" unicode="&#xf0;" horiz-adv-x="510" 
d="M270 520l-30 30l40 40c-30 30 -60 45 -110 45c-16 0 -26 -4 -34 -6l-8 19c27 18 57 22 82 22c40 0 80 -15 115 -40l35 40l30 -30l-35 -35c70 -70 115 -185 115 -335c0 -170 -80 -280 -220 -280s-220 110 -220 245s80 245 220 245c55 0 105 -30 130 -80
c-15 70 -35 120 -70 160zM375 235c0 115 -50 205 -125 205s-125 -90 -125 -205s50 -205 125 -205s125 90 125 205z" />
    <glyph glyph-name="germandbls" unicode="&#xdf;" horiz-adv-x="545" 
d="M360 550c0 50 -30 80 -90 80c-65 0 -100 -30 -100 -130v-500h-90v500c0 140 90 170 195 170c110 0 170 -41 170 -100c0 -110 -115 -110 -115 -200c0 -110 205 -115 205 -250c0 -90 -60 -130 -145 -130c-50 0 -100 15 -125 40s-25 55 -25 80h20c5 -40 50 -80 110 -80
c50 0 80 30 80 70c0 110 -205 115 -205 250c0 110 115 110 115 200z" />
    <glyph glyph-name="mu" unicode="&#xb5;" horiz-adv-x="560" 
d="M170 -190h-90v660h90v-235c0 -115 35 -205 115 -205c55 0 85 30 105 60v380h90v-470h-50l-35 45h-5c-20 -25 -50 -55 -115 -55c-40 0 -75 15 -105 45v-225z" />
    <glyph glyph-name="dagger" unicode="&#x2020;" horiz-adv-x="625" 
d="M450 290l-100 265l-100 -265h200zM510 250h-320l160 420zM65 120l210 550h45l-255 -670c-12 -6 -30 -10 -50 -10c-15 0 -35 2 -45 5v15c40 5 65 30 95 110zM100 15l80 205h340l85 -220h-45l-70 180h-280l-25 -60c-25 -60 -55 -90 -85 -105z" />
    <glyph glyph-name="daggerdbl" unicode="&#x2021;" horiz-adv-x="625" 
d="M275 670h45l-255 -670h-45zM450 290l-100 265l-100 -265h200zM510 250h-320l160 420zM490 180h-280l-70 -180h-45l85 220h340l85 -220h-45z" />
    <glyph glyph-name="uni0406" unicode="&#x406;" horiz-adv-x="290" 
d="M100 120v540h90v-540c0 -60 10 -100 70 -100h20v-20h-90c-70 0 -90 20 -90 120z" />
    <glyph glyph-name="Gbreve" unicode="&#x11e;" horiz-adv-x="685" 
d="M370 640c-170 0 -240 -150 -240 -300c0 -240 110 -320 240 -320c71 0 116 14 155 35v174c0 55 15 117 165 117v-20c-65 0 -75 -36 -75 -95v-188c-72 -44 -148 -63 -245 -63c-200 0 -340 160 -340 360c0 190 120 340 310 340c120 0 204 -36 240 -80c25 -30 25 -90 25 -135
h-20c-25 115 -95 175 -215 175zM350 790c55 0 90 20 110 45l20 -15c-25 -55 -65 -90 -130 -90s-105 35 -130 90l20 15c20 -25 55 -45 110 -45z" />
    <glyph glyph-name="gbreve" unicode="&#x11f;" horiz-adv-x="480" 
d="M50 330c0 115 85 150 190 150h185v-25l-65 -10v-5c40 -20 70 -60 70 -110c0 -115 -85 -150 -190 -150c-70 0 -105 -10 -105 -35s35 -35 105 -35c120 0 220 -45 220 -155c0 -115 -95 -155 -220 -155s-220 40 -220 155c0 65 50 110 110 130c-20 10 -40 30 -40 60
s20 45 35 55c-40 20 -75 65 -75 130zM250 70l-55 5c-50 -20 -85 -55 -85 -120c0 -80 55 -115 130 -115s130 35 130 115c0 65 -40 105 -120 115zM340 330c0 80 -45 115 -100 115s-100 -30 -100 -115s45 -115 100 -115s100 30 100 115zM240 585c55 0 85 15 110 40l20 -15
c-25 -45 -65 -80 -130 -80s-105 35 -130 80l20 15c25 -25 55 -40 110 -40z" />
    <glyph glyph-name="Idotaccent" unicode="&#x130;" horiz-adv-x="290" 
d="M100 120v540h90v-540c0 -60 10 -100 70 -100h20v-20h-90c-70 0 -90 20 -90 120zM189 765c0 -28 -18 -45 -46 -45c-31 0 -56 30 -56 64c0 28 18 45 46 45c31 0 56 -30 56 -64z" />
    <glyph glyph-name="dotlessi" unicode="&#x131;" 
d="M170 350v-350h-90v350c0 60 -10 100 -70 100h-20v20h90c70 0 90 -20 90 -120z" />
    <glyph glyph-name="Scedilla" unicode="&#x15e;" horiz-adv-x="526" 
d="M481 168c0 -112 -76 -185 -211 -185v-31c50 0 80 -20 80 -70s-30 -70 -120 -70v30c60 0 80 10 80 40s-20 40 -80 40v63c-95 10 -185 55 -185 120v107h18c22 -134 89 -189 201 -189c69 0 131 36 131 102c0 58 -37 95 -110 138l-123 73c-85 50 -117 98 -117 172
c0 103 77 170 194 170c99 0 216 -45 216 -120v-107h-18c-22 134 -86 187 -198 187c-59 0 -116 -39 -116 -101c0 -58 38 -88 111 -131l123 -73c85 -50 124 -91 124 -165z" />
    <glyph glyph-name="scedilla" unicode="&#x15f;" horiz-adv-x="435" 
d="M395 120c0 -85 -75 -130 -175 -130v-31c50 0 80 -20 80 -70s-30 -70 -120 -70v30c60 0 80 10 80 40s-20 40 -80 40v61c-55 5 -95 19 -115 40c-25 25 -25 55 -25 105h20c10 -65 55 -105 140 -105c75 0 110 30 110 70s-30 65 -90 90l-60 25c-75 31 -120 70 -120 135
c0 85 70 130 165 130c75 0 125 -15 150 -40s25 -55 25 -105h-20c-10 65 -55 105 -135 105c-65 0 -100 -30 -100 -70c0 -35 30 -64 80 -85l60 -25c85 -35 130 -70 130 -140z" />
    <glyph glyph-name="ordfeminine" unicode="&#xaa;" horiz-adv-x="242" 
d="M173 453v72h-16c-54 0 -86 -21 -86 -54c0 -34 24 -51 51 -51s40 17 51 33zM222 401h-27l-19 25h-3c-11 -14 -35 -30 -75 -30c-30 0 -78 16 -78 75c0 60 64 76 137 76h16c0 75 -24 91 -56 91c-30 0 -51 -11 -59 -45h-25c0 18 0 34 14 48c13 14 48 19 80 19
c49 0 95 -16 95 -113v-146z" />
    <glyph glyph-name="dieresis" unicode="&#xa8;" horiz-adv-x="280" 
d="M100 780c0 -30 -20 -50 -50 -50s-50 20 -50 50s20 50 50 50s50 -20 50 -50zM280 780c0 -30 -20 -50 -50 -50s-50 20 -50 50s20 50 50 50s50 -20 50 -50z" />
    <glyph glyph-name="circumflex" unicode="&#x2c6;" 
d="M210 670l-85 70l-85 -70h-40l80 105h90l80 -105h-40z" />
    <glyph glyph-name="acute" unicode="&#xb4;" horiz-adv-x="145" 
d="M145 820l-105 -120h-40l55 120h90z" />
    <glyph glyph-name="cedilla" unicode="&#xb8;" horiz-adv-x="120" 
d="M0 0h40v-51c50 0 80 -20 80 -70s-30 -70 -120 -70v30c60 0 80 10 80 40s-20 40 -80 40v81z" />
    <glyph glyph-name="tilde" unicode="&#x2dc;" horiz-adv-x="215" 
d="M30 696h-30c0 70 20 90 60 90s55 -30 95 -30c15 0 30 15 30 30h30c0 -70 -20 -90 -60 -90s-55 30 -95 30c-15 0 -30 -15 -30 -30z" />
    <glyph glyph-name="_0144" 
 />
    <glyph glyph-name="_0143" 
 />
    <glyph glyph-name="_0141" 
 />
    <glyph glyph-name="periodcentered" unicode="&#xb7;" 
 />
    <glyph glyph-name="uni00A0" unicode="&#xa0;" 
 />
    <glyph glyph-name="_0157" 
 />
    <glyph glyph-name="florin" unicode="&#x192;" 
 />
    <glyph glyph-name="_0129" 
 />
    <glyph glyph-name="_0127" 
 />
    <glyph glyph-name="macron" unicode="&#xaf;" 
 />
    </font>
</defs>
</svg>
